<svg width="194" height="107" viewBox="0 0 194 107" fill="none" xmlns="http://www.w3.org/2000/svg">
<rect width="193.999" height="106.566" fill="white"/>
<path d="M6.99408 5H5V81.2951H6.99408V5Z" fill="black"/>
<path d="M13.4541 5H8.98779V81.2951H13.4541V5Z" fill="black"/>
<path d="M19.915 5H17.9209V81.2951H19.915V5Z" fill="black"/>
<path d="M23.9028 5H21.9087V81.2951H23.9028V5Z" fill="black"/>
<path d="M27.8906 5H25.8965V81.2951H27.8906V5Z" fill="black"/>
<path d="M36.8226 5H29.8838V81.2951H36.8226V5Z" fill="black"/>
<path d="M40.811 5H38.8169V81.2951H40.811V5Z" fill="black"/>
<path d="M47.2714 5H45.2773V81.2951H47.2714V5Z" fill="black"/>
<path d="M53.7314 5H49.2651V81.2951H53.7314V5Z" fill="black"/>
<path d="M60.1919 5H55.7256V81.2951H60.1919V5Z" fill="black"/>
<path d="M64.1796 5H62.1855V81.2951H64.1796V5Z" fill="black"/>
<path d="M70.6396 5H68.6455V81.2951H70.6396V5Z" fill="black"/>
<path d="M74.6274 5H72.6333V81.2951H74.6274V5Z" fill="black"/>
<path d="M78.6157 5H76.6216V81.2951H78.6157V5Z" fill="black"/>
<path d="M87.5478 5H83.0815V81.2951H87.5478V5Z" fill="black"/>
<path d="M91.5361 5H89.542V81.2951H91.5361V5Z" fill="black"/>
<path d="M100.469 5H93.5303V81.2951H100.469V5Z" fill="black"/>
<path d="M104.457 5H102.463V81.2951H104.457V5Z" fill="black"/>
<path d="M110.917 5H106.451V81.2951H110.917V5Z" fill="black"/>
<path d="M114.905 5H112.911V81.2951H114.905V5Z" fill="black"/>
<path d="M121.365 5H116.898V81.2951H121.365V5Z" fill="black"/>
<path d="M127.825 5H123.359V81.2951H127.825V5Z" fill="black"/>
<path d="M134.286 5H132.292V81.2951H134.286V5Z" fill="black"/>
<path d="M138.274 5H136.28V81.2951H138.274V5Z" fill="black"/>
<path d="M142.262 5H140.268V81.2951H142.262V5Z" fill="black"/>
<path d="M148.722 5H144.255V81.2951H148.722V5Z" fill="black"/>
<path d="M155.182 5H150.715V81.2951H155.182V5Z" fill="black"/>
<path d="M164.115 5H157.176V81.2951H164.115V5Z" fill="black"/>
<path d="M168.102 5H166.108V81.2951H168.102V5Z" fill="black"/>
<path d="M172.091 5H170.097V81.2951H172.091V5Z" fill="black"/>
<path d="M176.079 5H174.084V81.2951H176.079V5Z" fill="black"/>
<path d="M182.539 5H178.072V81.2951H182.539V5Z" fill="black"/>
<path d="M188.999 5H187.005V81.2951H188.999V5Z" fill="black"/>
<path d="M137.343 97.7638L139.145 97.5971C139.298 98.4443 139.589 99.0589 140.02 99.4409C140.45 99.8228 141.002 100.014 141.676 100.014C142.252 100.014 142.756 99.8818 143.186 99.6179C143.624 99.354 143.982 99.0034 144.259 98.5659C144.537 98.1214 144.77 97.5242 144.957 96.7742C145.145 96.0242 145.239 95.2603 145.239 94.4826C145.239 94.3992 145.235 94.2742 145.228 94.1076C144.853 94.7048 144.339 95.1909 143.686 95.5659C143.041 95.9339 142.339 96.118 141.582 96.118C140.318 96.118 139.249 95.6596 138.374 94.743C137.499 93.8263 137.062 92.618 137.062 91.118C137.062 89.5694 137.516 88.3229 138.426 87.3784C139.343 86.434 140.489 85.9618 141.864 85.9618C142.857 85.9618 143.763 86.2292 144.582 86.7639C145.409 87.2986 146.034 88.0625 146.457 89.0555C146.888 90.0416 147.103 91.4722 147.103 93.3472C147.103 95.2985 146.891 96.8541 146.468 98.0138C146.044 99.1665 145.412 100.045 144.572 100.649C143.739 101.253 142.759 101.555 141.634 101.555C140.44 101.555 139.464 101.226 138.707 100.566C137.95 99.8992 137.496 98.9652 137.343 97.7638ZM145.02 91.0243C145.02 89.9479 144.732 89.0937 144.155 88.4618C143.586 87.8298 142.898 87.5139 142.093 87.5139C141.259 87.5139 140.534 87.8541 139.916 88.5347C139.298 89.2152 138.989 90.0972 138.989 91.1805C138.989 92.1527 139.28 92.9444 139.864 93.5555C140.454 94.1596 141.18 94.4617 142.041 94.4617C142.909 94.4617 143.621 94.1596 144.176 93.5555C144.739 92.9444 145.02 92.1006 145.02 91.0243Z" fill="black"/>
<path d="M131.197 101.295V97.6388H124.572V95.92L131.541 86.0243H133.072V95.92H135.135V97.6388H133.072V101.295H131.197ZM131.197 95.92V89.0347L126.416 95.92H131.197Z" fill="black"/>
<path d="M113.322 97.2638L115.197 97.0138C115.413 98.0763 115.777 98.8436 116.291 99.3159C116.812 99.7811 117.444 100.014 118.187 100.014C119.069 100.014 119.812 99.7082 120.416 99.0971C121.027 98.486 121.333 97.7291 121.333 96.8263C121.333 95.9652 121.051 95.2569 120.489 94.7013C119.926 94.1388 119.211 93.8576 118.343 93.8576C117.989 93.8576 117.548 93.927 117.02 94.0659L117.228 92.4201C117.353 92.434 117.454 92.4409 117.531 92.4409C118.329 92.4409 119.048 92.2326 119.687 91.8159C120.326 91.3992 120.645 90.7569 120.645 89.8888C120.645 89.2014 120.412 88.6319 119.947 88.1805C119.482 87.7291 118.881 87.5034 118.145 87.5034C117.416 87.5034 116.808 87.7326 116.322 88.1909C115.836 88.6493 115.524 89.3368 115.385 90.2534L113.51 89.9201C113.739 88.6632 114.26 87.6909 115.072 87.0035C115.885 86.309 116.895 85.9618 118.103 85.9618C118.937 85.9618 119.704 86.1423 120.406 86.5035C121.107 86.8576 121.642 87.3437 122.01 87.9618C122.385 88.5798 122.572 89.2361 122.572 89.9305C122.572 90.5902 122.395 91.1909 122.041 91.7326C121.687 92.2742 121.162 92.7048 120.468 93.0242C121.371 93.2326 122.072 93.6666 122.572 94.3263C123.072 94.9791 123.322 95.7985 123.322 96.7846C123.322 98.1179 122.836 99.2499 121.864 100.18C120.892 101.104 119.662 101.566 118.176 101.566C116.836 101.566 115.722 101.167 114.833 100.368C113.951 99.5693 113.447 98.5346 113.322 97.2638Z" fill="black"/>
<path d="M108.499 101.295H106.624V89.3472C106.173 89.7777 105.579 90.2083 104.843 90.6388C104.114 91.0694 103.458 91.3923 102.875 91.6076V89.7951C103.923 89.302 104.84 88.7048 105.624 88.0034C106.409 87.3021 106.965 86.6215 107.291 85.9618H108.499V101.295Z" fill="black"/>
<path d="M94.1245 96.7117V94.8263H99.8849V96.7117H94.1245Z" fill="black"/>
<path d="M82.583 88.0244V86.2223H92.4683V87.6806C91.4961 88.7153 90.5309 90.0903 89.5725 91.8056C88.6212 93.5208 87.885 95.2847 87.3642 97.0972C86.9892 98.375 86.7496 99.7743 86.6455 101.295H84.7184C84.7392 100.094 84.9753 98.6423 85.4267 96.941C85.8781 95.2396 86.5239 93.6007 87.3642 92.0243C88.2114 90.441 89.1107 89.1077 90.0621 88.0244H82.583Z" fill="black"/>
<path d="M73.4682 93.0138C72.6905 92.7291 72.1141 92.3229 71.7391 91.7951C71.3641 91.2673 71.1766 90.6354 71.1766 89.8993C71.1766 88.7882 71.5759 87.8541 72.3745 87.0972C73.1731 86.3403 74.2356 85.9618 75.562 85.9618C76.8953 85.9618 77.9682 86.3507 78.7807 87.1284C79.5932 87.8993 79.9994 88.8402 79.9994 89.9513C79.9994 90.6597 79.8119 91.2777 79.4369 91.8055C79.0689 92.3263 78.5064 92.7291 77.7495 93.0138C78.6869 93.3194 79.3987 93.8124 79.8849 94.493C80.3779 95.1735 80.6244 95.986 80.6244 96.9305C80.6244 98.236 80.1626 99.3332 79.239 100.222C78.3154 101.111 77.1002 101.555 75.5932 101.555C74.0863 101.555 72.871 101.111 71.9474 100.222C71.0238 99.3263 70.562 98.2117 70.562 96.8784C70.562 95.8853 70.812 95.0555 71.312 94.3888C71.8189 93.7152 72.5377 93.2569 73.4682 93.0138ZM73.0932 89.8368C73.0932 90.559 73.3259 91.1493 73.7912 91.6076C74.2564 92.0659 74.8606 92.2951 75.6036 92.2951C76.3259 92.2951 76.9161 92.0694 77.3745 91.618C77.8397 91.1597 78.0724 90.6006 78.0724 89.9409C78.0724 89.2534 77.8328 88.677 77.3536 88.2118C76.8814 87.7396 76.2911 87.5034 75.5828 87.5034C74.8675 87.5034 74.2738 87.7326 73.8016 88.1909C73.3294 88.6493 73.0932 89.1979 73.0932 89.8368ZM72.4891 96.8888C72.4891 97.4235 72.6141 97.9409 72.8641 98.4409C73.121 98.9409 73.4995 99.3297 73.9995 99.6075C74.4995 99.8784 75.0377 100.014 75.6141 100.014C76.5099 100.014 77.2495 99.7256 77.8328 99.1492C78.4161 98.5728 78.7078 97.8402 78.7078 96.9513C78.7078 96.0485 78.4057 95.302 77.8015 94.7117C77.2043 94.1215 76.4543 93.8263 75.5516 93.8263C74.6696 93.8263 73.937 94.118 73.3537 94.7013C72.7773 95.2846 72.4891 96.0138 72.4891 96.8888Z" fill="black"/>
<path d="M68.5621 99.4929V101.295H58.4685C58.4546 100.844 58.5275 100.41 58.6872 99.9929C58.9442 99.3054 59.3539 98.6284 59.9164 97.9617C60.4858 97.295 61.3052 96.5242 62.3747 95.6492C64.0344 94.2881 65.1559 93.2117 65.7392 92.4201C66.3226 91.6215 66.6142 90.868 66.6142 90.1597C66.6142 89.4166 66.3469 88.7916 65.8122 88.2847C65.2844 87.7708 64.5934 87.5139 63.7393 87.5139C62.8365 87.5139 62.1143 87.7847 61.5726 88.3264C61.0309 88.868 60.7566 89.618 60.7497 90.5763L58.8226 90.3784C58.9546 88.9409 59.4511 87.8472 60.3122 87.0972C61.1733 86.3403 62.3295 85.9618 63.7809 85.9618C65.2462 85.9618 66.4059 86.368 67.2601 87.1805C68.1142 87.993 68.5413 89 68.5413 90.2013C68.5413 90.8124 68.4163 91.4131 68.1663 92.0034C67.9163 92.5937 67.4996 93.2152 66.9163 93.868C66.3399 94.5208 65.3781 95.4166 64.0309 96.5555C62.9059 97.4999 62.1837 98.1423 61.8643 98.4825C61.5448 98.8159 61.2809 99.1527 61.0726 99.4929H68.5621Z" fill="black"/>
<path d="M46.833 93.7638C46.833 91.9583 47.017 90.5069 47.3851 89.4097C47.7601 88.3055 48.3122 87.4548 49.0413 86.8576C49.7774 86.2604 50.701 85.9618 51.8121 85.9618C52.6316 85.9618 53.3503 86.1285 53.9684 86.4618C54.5864 86.7882 55.0968 87.2639 55.4996 87.8889C55.9024 88.5069 56.2184 89.2638 56.4475 90.1597C56.6767 91.0486 56.7913 92.2499 56.7913 93.7638C56.7913 95.5555 56.6072 97.0034 56.2392 98.1075C55.8711 99.2047 55.3191 100.055 54.5829 100.66C53.8538 101.257 52.9302 101.555 51.8121 101.555C50.3399 101.555 49.1837 101.028 48.3434 99.9721C47.3365 98.7013 46.833 96.6318 46.833 93.7638ZM48.7601 93.7638C48.7601 96.2707 49.0517 97.9409 49.6351 98.7742C50.2253 99.6006 50.951 100.014 51.8121 100.014C52.6732 100.014 53.3955 99.5971 53.9788 98.7638C54.5691 97.9304 54.8642 96.2638 54.8642 93.7638C54.8642 91.2499 54.5691 89.5798 53.9788 88.7534C53.3955 87.9271 52.6663 87.5139 51.7913 87.5139C50.9302 87.5139 50.2427 87.8784 49.7288 88.6076C49.083 89.5382 48.7601 91.2569 48.7601 93.7638Z" fill="black"/>
</svg>
