<svg width="1803" height="133" viewBox="0 0 1803 133" fill="none" xmlns="http://www.w3.org/2000/svg">
<path d="M59.3339 99.8852V130H0.825089V0.840784H79.6973L87.9191 65.4682H90.5004L99.2002 0.840784H178.072V130H119.564V99.9808L123.866 50.2674H119.564L103.502 130H75.3952L59.3339 50.2674H55.0318L59.3339 99.8852ZM228.317 69.6747C246.291 69.7703 255.755 77.8965 255.755 77.8965L257.763 76.5581C257.763 76.5581 250.688 64.7034 223.059 64.2254C209.866 63.9386 191.224 68.9099 191.224 68.9099L186.635 28.7568C186.635 28.7568 211.109 22.0646 236.635 22.447C281.09 23.0206 306.425 37.839 306.425 77.2273L305.756 77.3229L306.425 77.4185V129.809H247.916V124.264L257.285 112.122L255.277 110.401C255.277 110.401 240.555 132.39 216.558 132.486C196.864 132.486 180.898 125.889 181.185 102.275C181.472 76.0801 208.528 69.4835 228.317 69.6747ZM247.916 104.378V92.8106C247.629 88.604 245.908 87.7436 242.562 87.648C238.26 87.5524 236.252 91.2809 236.348 96.7303C236.444 103.327 238.642 105.908 243.04 105.908C245.143 105.813 246.96 105.335 247.916 104.378ZM366.039 48.9289C366.039 48.9289 380.953 22.0646 410.016 22.5426C431.622 22.8294 442.043 36.5962 442.617 52.275C443.286 69.3879 437.836 76.1757 437.836 76.1757H394.528C394.528 76.1757 396.918 60.1144 384.586 60.21C377.511 60.21 373.687 64.799 373.878 77.3229C373.974 89.4645 373.878 129.904 373.878 129.904H315.656V24.6459H374.261V30.7644L363.458 46.3477L366.039 48.9289ZM528.043 61.3573C518.387 61.3573 503.473 62.0265 503.187 77.4185C502.9 93.4798 516.284 93.4798 530.146 93.4798C539.802 93.4798 554.047 91.3765 554.047 91.3765L559.592 126.845C559.592 126.845 537.03 132.39 508.636 132.199C469.343 132.008 443.435 117.667 443.435 77.4185C443.435 38.0302 472.02 22.2558 511.217 22.5426C535.5 22.7338 559.592 28.948 559.592 28.948L555.194 63.4605C555.194 63.4605 537.699 61.3573 528.043 61.3573ZM619.397 77.1317C619.397 90.9941 623.317 94.149 630.678 94.2446C637.466 94.3402 641.386 89.2733 641.482 77.1317C641.577 64.6078 641.482 24.4546 641.482 24.4546H699.704V129.713H641.482V123.212L652.285 108.107L649.703 106.386C649.703 106.386 630.87 132.008 607.065 131.912C580.678 131.816 561.462 117.38 561.462 77.1317C561.462 36.883 561.462 24.5502 561.462 24.5502H619.397C619.397 24.5502 619.397 62.4089 619.397 77.1317ZM785.704 60.1144C765.341 59.254 759.126 49.5025 759.126 49.5025L756.545 51.7014C756.545 51.7014 758.744 56.0035 768.209 61.8353C783.792 71.4912 822.893 67.3802 822.893 98.2599C822.893 123.117 806.832 132.008 767.635 131.816C734.748 131.625 706.736 122.447 706.736 122.447L711.134 87.9348C711.134 87.9348 734.748 93.5754 744.308 93.9578C764.671 94.8182 770.886 104.57 770.886 104.57L773.467 102.371C773.467 102.371 771.268 98.0687 761.803 92.1413C746.22 82.4855 707.214 83.9195 707.214 55.8123C707.214 30.9556 722.797 21.969 761.994 22.1602C794.882 22.3514 823.276 31.6248 823.276 31.6248L818.974 66.1374C818.974 66.1374 795.36 60.4969 785.704 60.1144ZM1002.92 88.0304V130.096H874.243V0.936387H1002.92V43.0016H932.752V52.9442H995.563V78.0877H932.752V88.0304H1002.92ZM1004.41 24.6459H1059.86L1073.15 70.2483L1074.78 95.7742H1079.17L1080.8 70.2483L1094.37 24.6459H1149.92L1118.85 129.904H1035.48L1004.41 24.6459ZM1206 132.294C1161.35 132.103 1140.6 117.763 1140.6 77.5141C1141.85 42.4279 1165.17 23.2118 1202.75 22.7338C1246.24 22.0646 1266.61 43.6708 1266.7 66.9022C1266.7 76.5581 1266.13 83.8239 1266.13 83.8239H1186.78V86.4052C1186.78 86.4052 1194.52 87.3612 1200.07 89.3689C1207.33 92.1413 1213.84 94.4358 1226.65 94.4358C1235.92 94.4358 1259.15 91.4721 1259.15 91.4721L1264.41 126.941C1264.41 126.941 1233.24 132.486 1206 132.294ZM1208 61.4529C1202.17 61.2617 1199.11 64.321 1198.16 71.2044H1217.56C1216.7 66.233 1214.22 61.5485 1208 61.4529ZM1330.05 24.7415V31.2424L1319.15 46.4433L1321.73 48.1641C1321.73 48.1641 1340.66 22.447 1364.46 22.5426C1390.95 22.7338 1410.16 37.1698 1410.16 77.4185V130H1352.13V77.4185C1352.13 63.5561 1348.21 60.3056 1340.85 60.3056C1334.06 60.21 1330.14 65.1814 1330.05 77.3229V130H1271.73V24.7415H1330.05ZM1494.06 60.1144C1473.7 59.254 1467.48 49.5025 1467.48 49.5025L1464.9 51.7014C1464.9 51.7014 1467.1 56.0035 1476.56 61.8353C1492.15 71.4912 1531.25 67.3802 1531.25 98.2599C1531.25 123.117 1515.19 132.008 1475.99 131.816C1443.1 131.625 1415.09 122.447 1415.09 122.447L1419.49 87.9348C1419.49 87.9348 1443.1 93.5754 1452.66 93.9578C1473.03 94.8182 1479.24 104.57 1479.24 104.57L1481.82 102.371C1481.82 102.371 1479.62 98.0687 1470.16 92.1413C1454.57 82.4855 1415.57 83.9195 1415.57 55.8123C1415.57 30.9556 1431.15 21.969 1470.35 22.1602C1503.24 22.3514 1531.63 31.6248 1531.63 31.6248L1527.33 66.1374C1527.33 66.1374 1503.71 60.4969 1494.06 60.1144ZM1597.94 132.294C1553.29 132.103 1532.54 117.763 1532.54 77.5141C1533.79 42.4279 1557.11 23.2118 1594.69 22.7338C1638.19 22.0646 1658.55 43.6708 1658.64 66.9022C1658.64 76.5581 1658.07 83.8239 1658.07 83.8239H1578.72V86.4052C1578.72 86.4052 1586.46 87.3612 1592.01 89.3689C1599.27 92.1413 1605.78 94.4358 1618.59 94.4358C1627.86 94.4358 1651.09 91.4721 1651.09 91.4721L1656.35 126.941C1656.35 126.941 1625.18 132.486 1597.94 132.294ZM1599.94 61.4529C1594.11 61.2617 1591.05 64.321 1590.1 71.2044H1609.5C1608.64 66.233 1606.16 61.5485 1599.94 61.4529ZM1721.99 24.7415V31.2424L1711.09 46.4433L1713.67 48.1641C1713.67 48.1641 1732.6 22.447 1756.4 22.5426C1782.89 22.7338 1802.1 37.1698 1802.1 77.4185V130H1744.07V77.4185C1744.07 63.5561 1740.15 60.3056 1732.79 60.3056C1726 60.21 1722.08 65.1814 1721.99 77.3229V130H1663.67V24.7415H1721.99Z" fill="black"/>
</svg>
