<svg width="1920" height="593" viewBox="0 0 1920 593" fill="none" xmlns="http://www.w3.org/2000/svg">
<rect y="447" width="1920" height="146" fill="#FFD9DA"/>
<path d="M444.051 243.028L449.676 202.078C442.701 198.703 434.977 194.878 427.477 191.203C427.852 195.703 428.226 200.053 428.826 204.028C431.901 224.353 432.351 243.253 445.176 248.803C444.276 247.153 443.751 245.128 444.051 243.028Z" fill="white"/>
<path d="M470.291 41.9467C466.841 45.4717 464.741 53.2717 464.741 53.2717L453.416 139.072L442.916 145.297C444.041 146.047 445.091 146.797 446.216 147.547C444.941 147.172 443.666 146.797 442.391 146.347L456.491 153.247L472.091 40.2969C471.491 40.8219 470.891 41.3467 470.291 41.9467Z" fill="white"/>
<path d="M544.69 194.799C523.165 215.049 499.39 224.573 469.765 211.448C465.265 209.423 457.99 206.048 449.74 201.998L444.115 242.948C443.815 245.123 444.265 247.149 445.315 248.724C449.065 250.299 453.79 250.824 459.94 249.849C480.415 246.699 528.415 223.148 553.915 248.648C557.74 252.473 560.515 256.524 562.39 260.724C564.64 259.374 566.365 256.974 566.74 254.049L579.715 160.148C565.99 175.448 549.49 190.299 544.69 194.799Z" fill="#FFE2AB"/>
<path d="M487.617 16.0027C488.217 15.6277 488.892 15.328 489.567 15.178C490.842 15.028 491.742 15.778 492.042 16.978C492.342 17.953 492.117 19.0029 491.742 19.9029C490.842 22.1529 489.042 23.8777 487.167 25.3777C485.067 27.1027 483.042 28.9779 481.092 30.7779C478.692 32.9529 477.042 35.803 474.642 37.978C473.817 38.728 472.917 39.478 472.092 40.228L456.492 153.178L502.167 175.528C502.167 175.528 562.542 143.653 567.567 138.628C572.592 133.603 575.817 108.028 577.167 103.903C578.517 99.7779 583.992 85.153 585.417 90.178C586.767 95.203 584.517 112.978 584.517 112.978L586.767 109.603L599.292 18.853C599.967 14.128 596.892 10.0027 592.542 9.62774L572.292 7.82781L572.067 9.25274C571.317 14.4277 566.817 18.253 562.017 17.803L513.342 13.3777C508.542 12.9277 505.167 8.42774 505.917 3.25274L506.142 1.82781L485.892 0.027882C481.467 -0.347118 477.417 3.10281 476.742 7.82781L474.717 22.303C477.942 20.728 481.842 18.8528 484.467 17.5778C485.442 17.1278 486.567 16.6027 487.617 16.0027Z" fill="#FFE2AB"/>
<path d="M513.193 13.5282L561.868 17.9531C566.668 18.4031 571.168 14.5782 571.918 9.4032L572.143 7.97827V7.82812L505.993 1.82812V1.97827L505.768 3.4032C505.018 8.5782 508.393 13.0782 513.193 13.5282Z" fill="#1E2B3C"/>
<g style="mix-blend-mode:multiply">
<path d="M581.597 400.003C581.297 400.678 581.072 401.053 581.072 401.053L570.647 400.153L543.422 400.528L544.622 494.053L638.147 492.853L636.947 399.328L581.597 400.003Z" fill="#1E98F5"/>
</g>
<g style="mix-blend-mode:multiply">
<path d="M768.981 209.087L588.68 313.188L692.78 493.488L873.081 389.388L768.981 209.087Z" fill="#F05F63"/>
</g>
<path d="M431.151 315.778C426.876 315.703 422.601 315.403 418.401 314.728C417.351 314.578 416.302 314.428 415.252 314.203L412.102 313.528C410.002 313.003 407.976 312.478 405.951 311.728C401.901 310.378 397.926 308.503 394.326 306.253C388.251 302.428 383.076 297.253 379.026 291.328C386.826 360.853 375.727 493.528 375.727 493.528H458.151C458.151 493.528 454.176 473.578 443.526 472.753C427.101 471.478 421.626 464.278 421.176 455.653C420.276 437.803 430.477 365.878 433.102 315.778C432.427 315.778 431.751 315.778 431.151 315.778Z" fill="#1E2B3C"/>
<path d="M581.592 400.007C583.242 396.407 587.742 384.483 575.967 380.058C555.642 372.483 551.592 359.658 552.642 350.433C556.617 313.832 573.117 284.357 562.392 260.732C560.517 256.532 557.741 252.482 553.916 248.657C528.416 223.157 480.416 246.782 459.941 249.857C453.791 250.757 449.066 250.307 445.316 248.732C432.416 243.257 431.967 224.282 428.967 203.957C428.367 199.982 427.992 195.632 427.617 191.132C435.042 194.807 442.841 198.632 449.816 202.007C458.141 206.057 465.342 209.432 469.842 211.457C499.467 224.582 523.317 215.057 544.767 194.807C549.567 190.232 566.066 175.457 579.791 160.157C587.591 151.457 594.416 142.682 597.791 135.407C598.616 133.682 602.366 109.832 601.916 103.007C601.466 96.1822 593.666 92.5072 593.666 92.5072L591.867 102.107L586.842 109.682L584.592 113.057C584.592 113.057 586.842 95.2822 585.492 90.2572C584.142 85.2322 578.667 99.8574 577.242 103.982C575.892 108.107 572.667 133.682 567.642 138.707C562.617 143.732 502.242 175.607 502.242 175.607L456.566 153.257L442.467 146.357C441.642 146.132 440.891 145.832 440.066 145.607L434.291 142.832L422.742 137.282L411.191 131.732L405.416 128.957C404.141 128.132 402.867 127.232 401.592 126.407C401.442 126.332 401.291 126.332 401.066 126.257L400.541 125.957V126.107C397.691 125.507 394.467 125.207 390.867 125.357C372.342 126.182 357.041 153.932 365.291 238.682C365.816 243.857 366.417 248.807 367.242 253.532C367.917 256.907 368.667 260.207 369.642 263.507C371.592 271.682 374.367 279.632 378.492 286.907C382.617 294.182 388.392 300.482 395.367 304.832C398.892 307.007 402.642 308.807 406.617 310.157C408.567 310.832 410.592 311.357 412.617 311.882L415.691 312.557C416.741 312.782 417.717 312.932 418.767 313.082C422.892 313.682 427.091 314.057 431.291 314.057C433.391 314.132 435.492 314.057 437.592 314.057C438.642 314.057 439.692 313.982 440.742 313.907C441.792 313.832 442.842 313.832 443.892 313.682L450.191 313.082C451.241 313.007 452.292 312.932 453.342 312.782L456.492 312.332C458.592 312.032 460.692 311.807 462.717 311.432L468.941 310.232C477.116 308.507 485.216 306.107 492.941 302.807L494.441 302.282L495.867 301.682L498.717 300.407C499.617 299.957 500.592 299.507 501.492 298.982C511.467 293.132 515.441 288.032 515.441 288.032L504.566 395.507L505.617 394.683L570.867 400.232L581.291 401.132C581.141 401.057 581.292 400.682 581.592 400.007Z" fill="#1E2B3C"/>
<path d="M495.651 301.594L494.227 302.194L492.727 302.719C485.002 306.019 476.902 308.344 468.727 310.144L462.502 311.344C460.402 311.719 458.376 311.944 456.276 312.244L453.127 312.694C452.077 312.844 451.027 312.919 449.977 312.994L443.676 313.594C442.626 313.669 441.576 313.744 440.526 313.819C439.476 313.894 438.427 313.969 437.377 313.969C435.277 313.969 433.176 314.044 431.076 313.969C426.876 313.894 422.676 313.594 418.551 312.994C417.501 312.844 416.452 312.694 415.477 312.469L412.401 311.794C410.376 311.269 408.351 310.744 406.401 310.069C402.501 308.719 398.676 306.994 395.151 304.744C388.101 300.319 382.326 294.019 378.276 286.819C374.151 279.544 371.376 271.594 369.426 263.419C368.526 260.119 367.701 256.819 367.026 253.444C366.051 248.569 365.227 243.544 364.477 238.594C364.702 242.794 365.002 247.069 365.602 251.269C366.127 255.469 366.727 259.669 367.627 263.869C369.577 272.119 372.426 280.294 376.701 287.719C377.376 288.994 378.126 290.194 378.951 291.319C382.926 297.244 388.102 302.494 394.252 306.244C397.927 308.569 401.827 310.369 405.877 311.719C407.902 312.469 410.001 312.994 412.026 313.519L415.176 314.194C416.226 314.419 417.276 314.569 418.326 314.719C422.526 315.319 426.801 315.694 431.076 315.769C431.751 315.769 432.426 315.769 433.026 315.769C434.526 315.769 435.951 315.769 437.451 315.694C438.501 315.694 439.552 315.619 440.602 315.544C441.652 315.469 442.702 315.469 443.752 315.319L450.127 314.719C451.177 314.644 452.226 314.569 453.276 314.419L456.426 313.969C458.526 313.669 460.627 313.444 462.727 313.069L469.026 311.869C477.351 310.069 485.526 307.744 493.401 304.369L494.826 303.694L496.252 302.944L499.102 301.444C500.002 300.919 500.902 300.319 501.877 299.794C502.327 299.494 502.777 299.269 503.227 298.969L504.576 298.069C508.101 295.669 511.476 293.044 514.176 289.744C513.426 290.494 512.677 291.244 511.852 291.919L510.651 292.894L509.377 293.794C508.552 294.469 507.652 294.994 506.752 295.594C505.927 296.194 504.951 296.719 504.051 297.244L502.701 298.069C502.251 298.294 501.801 298.519 501.276 298.819C501.276 298.819 501.276 298.819 501.201 298.819C500.301 299.269 499.401 299.794 498.426 300.244L495.651 301.594Z" fill="#EDCFC5"/>
<path d="M411.937 129.933L423.488 135.483L435.038 141.033L440.812 143.808C441.487 144.258 442.238 144.708 442.913 145.158L453.413 138.933L464.738 53.1327C464.738 53.1327 466.913 45.333 470.288 41.808C470.813 41.208 471.413 40.6829 472.013 40.1579C472.838 39.4079 473.737 38.6579 474.562 37.9079C476.962 35.7329 478.613 32.8828 481.013 30.7078C482.963 28.8328 484.988 27.033 487.088 25.308C488.963 23.808 490.763 22.0828 491.663 19.8328C492.038 18.9328 492.188 17.8829 491.963 16.9079C491.663 15.7079 490.763 14.958 489.488 15.108C488.813 15.183 488.138 15.558 487.538 15.933C486.488 16.533 485.362 16.9827 484.312 17.5077C481.687 18.7827 477.787 20.658 474.562 22.233C471.412 23.733 468.937 24.933 468.937 24.933L471.413 7.90789C471.413 7.90789 465.188 5.05774 458.963 10.7577C452.738 16.4577 447.563 37.6079 445.013 46.9079C442.463 56.2079 435.488 104.958 435.488 104.958L402.188 125.733C403.537 126.108 404.813 126.558 406.088 127.008L411.937 129.933Z" fill="#1E2B3C"/>
<path d="M408.041 94.5328L406.241 87.0328C404.141 78.1828 395.291 72.7079 386.516 74.8079C378.491 76.6829 373.241 84.2578 373.916 92.2828C373.991 92.9578 373.241 93.4078 372.716 93.0328C371.666 92.3578 370.541 92.2078 369.791 92.7328C368.441 93.6328 368.441 96.1829 369.941 98.4329C371.366 100.683 373.691 101.808 375.041 100.983C375.341 100.833 375.491 100.533 375.716 100.233L376.391 103.008C378.491 111.858 387.341 117.333 396.116 115.233C399.866 114.333 403.016 112.233 405.266 109.383L403.466 101.733C403.316 102.033 403.091 102.333 402.866 102.633C402.566 102.708 402.266 102.708 401.966 102.708C401.366 102.708 400.766 102.708 400.166 102.633C399.566 102.558 398.966 102.408 398.366 102.183C398.066 102.108 397.766 101.958 397.541 101.808C397.391 101.433 397.241 101.058 397.241 100.533C397.691 100.308 398.066 100.233 398.366 100.083C398.591 100.233 398.816 100.308 399.041 100.383C399.491 100.533 400.016 100.683 400.466 100.758C400.916 100.833 401.441 100.833 401.966 100.833C402.191 100.833 402.491 100.833 402.716 100.758L403.466 101.358L402.191 95.9577L408.041 94.5328Z" fill="#1E2B3C"/>
<path d="M401.826 100.828C401.301 100.828 400.851 100.828 400.326 100.753C399.876 100.678 399.351 100.528 398.901 100.378C398.676 100.303 398.452 100.228 398.227 100.078C397.852 100.228 397.552 100.378 397.102 100.528C397.102 100.978 397.251 101.428 397.401 101.803C397.701 101.953 397.927 102.028 398.227 102.178C398.827 102.403 399.426 102.553 400.026 102.628C400.626 102.703 401.226 102.778 401.826 102.703C402.126 102.703 402.427 102.628 402.727 102.628C402.952 102.328 403.176 102.103 403.326 101.728L403.252 101.353L402.502 100.753C402.352 100.828 402.051 100.828 401.826 100.828Z" fill="#F0D8CF"/>
<path d="M405.341 128.803L411.116 131.578L422.666 137.128L434.216 142.678L439.991 145.453C440.816 145.678 441.566 145.978 442.391 146.203C443.666 146.578 444.941 147.028 446.216 147.403C445.166 146.653 444.041 145.903 442.916 145.153C442.241 144.703 441.491 144.253 440.816 143.803L435.041 141.028L423.491 135.478L411.941 129.928L406.166 127.153C404.891 126.703 403.541 126.328 402.266 125.878C401.516 125.653 400.766 125.428 400.016 125.203C400.541 125.578 401.066 125.953 401.591 126.253C402.791 127.153 404.066 127.978 405.341 128.803Z" fill="#EDCFC5"/>
<path d="M1339.84 81.1172L1338.63 83.8607C1338.63 83.9826 1338.62 84.1654 1338.69 84.3483C1338.75 84.1044 1338.81 83.8607 1338.93 83.5558C1339.17 82.7023 1339.48 81.9097 1339.84 81.1172Z" fill="white"/>
<path d="M1305.03 276.763C1304.84 279.873 1304.66 283.042 1304.54 286.152C1304.48 287.737 1304.42 289.261 1304.48 290.846C1304.48 291.639 1304.48 292.37 1304.54 293.163C1304.6 293.894 1304.66 294.626 1304.84 295.358C1305.15 296.76 1305.82 298.101 1306.73 299.26C1307.65 300.357 1308.87 301.272 1310.15 301.942C1310.27 302.003 1310.33 302.064 1310.45 302.064L1306.73 252.438C1306.61 254.266 1306.49 256.156 1306.31 257.985C1305.88 264.265 1305.39 270.545 1305.03 276.763Z" fill="white"/>
<path d="M1343.32 72.5859C1343.26 72.7688 1343.26 72.8906 1343.2 73.0735V73.0128C1343.26 72.8909 1343.32 72.7079 1343.32 72.5859Z" fill="white"/>
<path d="M1343.26 73.0182L1343.2 73.201C1343.14 73.3229 1343.14 73.5059 1343.08 73.6278L1342.77 74.3593V74.4203L1342.04 76.2493L1340.58 79.9073C1340.09 81.1266 1339.6 82.3457 1339.23 83.626C1339.11 83.9308 1339.05 84.2356 1338.99 84.5405C1338.93 84.8453 1338.93 85.1501 1338.93 85.455L1339.05 87.406C1339.23 90.0275 1339.42 92.7101 1339.54 95.3316C1339.54 95.6364 1339.6 95.9413 1339.6 96.2461L1354.35 75.7617C1354.35 75.7617 1354.42 75.2739 1354.48 74.5423C1354.35 71.7379 1354.11 69.1773 1354.29 66.3119H1349.05C1348.68 66.3119 1348.38 66.007 1348.38 65.6412V64.4219H1344.6C1344.29 67.0434 1343.99 69.6649 1343.38 72.2254C1343.38 72.2864 1343.32 72.3473 1343.32 72.4692C1343.38 72.7131 1343.32 72.8963 1343.26 73.0182Z" fill="white"/>
<path d="M1364.83 312.244C1366.11 315.963 1365.38 319.499 1365.38 319.499L1323.38 319.255H1272.59L1272.41 310.477C1187.6 323.279 1115.54 374.979 1075 446.797H1552C1513.04 377.905 1445.19 327.486 1364.83 312.244Z" fill="#F05F63"/>
<path d="M1366.05 66.6716C1366.42 67.4641 1366.84 68.2569 1367.21 69.0495C1367.45 69.903 1367.7 70.7564 1367.82 71.6709C1367.94 72.5244 1368 73.4998 1367.82 74.3534C1367.76 73.4998 1367.39 72.7073 1367.03 71.9147C1366.66 71.1222 1366.23 70.3907 1365.81 69.6591C1365.44 68.8666 1365.07 68.1348 1364.71 67.3422C1364.34 66.6106 1363.85 65.7573 1363.61 64.7818C1363.37 63.8673 1363.31 62.8307 1363.55 61.8553C1363.67 61.3675 1363.85 60.88 1364.04 60.5142C1364.22 60.0874 1364.34 59.7216 1364.59 59.2949C1364.95 58.5023 1365.38 57.6485 1365.99 56.9169C1366.29 56.5511 1366.6 56.1855 1366.9 55.8807L1367.15 55.6369L1367.33 55.4538C1367.45 55.3319 1367.51 55.2099 1367.63 55.088C1368 54.5393 1368.18 53.7468 1368.12 53.0152C1368.12 52.2836 1367.88 51.5521 1367.51 51.0644C1367.45 51.0034 1367.39 50.9424 1367.39 50.9424C1367.33 50.9424 1367.33 50.8813 1367.33 50.8813C1367.27 50.8813 1367.15 50.8203 1367.03 50.8203C1366.78 50.8203 1366.42 50.9422 1366.05 51.1251C1365.38 51.43 1364.65 51.9178 1363.98 52.4055C1363.67 52.6494 1363.31 52.8934 1363 53.1982C1362.82 53.3202 1362.7 53.4419 1362.57 53.6248L1362.15 54.0517C1361.54 54.6614 1360.99 55.271 1360.38 55.8807C1359.04 56.9781 1357.7 58.0754 1356.3 59.1728C1356.42 58.9899 1356.54 58.8071 1356.66 58.6242C1355.75 59.9045 1355.01 61.3675 1354.77 63.0746C1354.59 64.233 1354.47 65.3303 1354.41 66.3667C1354.22 69.2321 1354.47 71.7927 1354.59 74.5972C1354.53 75.3897 1354.47 75.8165 1354.47 75.8165L1339.71 96.3015C1339.71 97.338 1339.65 98.3744 1339.65 99.3498C1339.59 100.691 1339.53 102.032 1339.47 103.313C1339.1 108.617 1338.43 113.92 1336.97 119.103C1336.24 121.663 1335.32 124.224 1334.04 126.601C1333.92 126.906 1333.74 127.15 1333.55 127.455C1334.1 127.455 1334.65 127.394 1335.2 127.333C1354.65 125.687 1367.39 88.8634 1368.43 85.6932C1369.46 84.169 1370.5 82.7056 1371.48 81.1814C1372.7 79.4134 1374.04 77.8285 1375.07 75.9385C1376.05 74.1096 1376.66 72.0366 1377.08 70.0247C1377.33 68.7444 1377.63 67.4643 1377.88 66.245H1365.99C1365.99 66.4888 1365.99 66.5496 1366.05 66.6716Z" fill="#1E2B3C"/>
<path d="M1360.93 52.9579L1361.41 52.4703C1361.6 52.2874 1361.78 52.1656 1361.9 51.9827C1362.27 51.6779 1362.57 51.4338 1362.94 51.1289C1363.67 50.5802 1364.4 50.0926 1365.31 49.6658C1365.74 49.4829 1366.23 49.3002 1366.84 49.2392C1367.14 49.2392 1367.45 49.2391 1367.81 49.422C1368 49.483 1368.12 49.6049 1368.3 49.7268C1368.42 49.8487 1368.49 49.9097 1368.61 50.0316C1369.34 50.9461 1369.58 51.9217 1369.58 52.8972C1369.64 53.8726 1369.4 54.909 1368.85 55.8234C1368.73 56.0673 1368.55 56.2502 1368.36 56.4331L1368.12 56.7379L1367.88 56.9207C1367.81 56.9817 1367.75 57.0429 1367.69 57.1648C1368.18 57.4087 1368.73 57.5306 1369.22 57.1648C1369.95 56.6771 1370.5 55.3357 1370.38 54.6041C1371.84 56.1892 1372.94 56.3111 1374.46 54.5431C1374.52 54.4821 1374.52 54.4213 1374.58 54.3603H1379.95C1380.37 51.8607 1377.39 47.7149 1374.7 46.9223C1372.87 46.3736 1371.84 48.0198 1371.41 49.1782C1371.23 49.6049 1371.11 49.9706 1371.11 49.9706C1371.11 49.9706 1371.05 49.7877 1370.98 49.6048C1370.86 49.117 1370.68 48.3857 1370.38 47.715C1370.31 47.6541 1370.31 47.5929 1370.25 47.532C1369.83 46.7394 1369.09 46.0688 1368.06 46.0078C1367.63 46.0078 1367.27 46.069 1366.9 46.1909C1366.9 46.1909 1366.9 46.1909 1366.84 46.1909C1366.41 46.3128 1366.05 46.5565 1365.74 46.9223C1364.89 47.7149 1364.52 48.8123 1364.46 49.0561L1364.4 48.9951C1364.16 48.4464 1363.3 46.5567 1362.02 46.4957C1361.11 46.4348 1359.95 46.9224 1359.22 47.3492C1358.67 47.654 1358.24 48.2027 1358.06 48.8123C1357.76 49.9707 1357.39 51.9827 1357.02 54.4213H1359.4C1360.01 53.9336 1360.44 53.4456 1360.93 52.9579Z" fill="#1E2B3C"/>
<path d="M1295.33 62.5898V58.3222C1295.33 58.0783 1295.45 57.8955 1295.64 57.7735C1293.32 53.323 1288.2 50.8231 1283.08 52.0425C1277.53 53.3228 1273.93 58.505 1274.42 64.053C1274.48 64.4797 1273.99 64.8455 1273.57 64.6016C1272.83 64.1139 1272.1 64.053 1271.55 64.3578C1270.64 64.9674 1270.64 66.7354 1271.61 68.2596C1272.59 69.8447 1274.18 70.5762 1275.09 70.0275C1275.27 69.9056 1275.39 69.7228 1275.52 69.5399L1275.94 71.4299C1277.41 77.4656 1283.44 81.2457 1289.54 79.8435C1292.1 79.2338 1294.29 77.7703 1295.82 75.8193L1294.72 71.1861C1294.23 71.3081 1293.75 71.3689 1293.26 71.3689C1292.04 71.3689 1290.88 71.064 1289.84 70.3934C1289.48 70.1495 1289.36 69.7229 1289.6 69.3571C1289.84 68.9913 1290.27 68.8692 1290.64 69.113C1291.73 69.7837 1293.07 70.0275 1294.35 69.7227L1293.62 66.6137L1297.77 65.6381L1297.22 63.2605H1295.94C1295.64 63.1995 1295.33 62.9556 1295.33 62.5898Z" fill="#1E2B3C"/>
<path d="M1290.69 69.0566C1290.33 68.8127 1289.84 68.9346 1289.66 69.3004C1289.41 69.6662 1289.54 70.1537 1289.9 70.3366C1290.94 70.9463 1292.1 71.3122 1293.32 71.3122C1293.8 71.3122 1294.29 71.2513 1294.78 71.1294L1294.41 69.6662C1293.13 69.9711 1291.79 69.7272 1290.69 69.0566Z" fill="#EAB948"/>
<path d="M1323.37 319.257L1365.38 319.501C1365.38 319.501 1366.11 315.965 1364.83 312.246C1363.92 309.563 1361.97 306.82 1357.88 305.296C1343.92 300.053 1338.86 290.908 1339.53 284.567C1342.7 254.938 1343.49 240.245 1335.2 214.029C1326.67 187.082 1319.78 176.962 1314.05 164.525C1310.39 156.599 1309.23 148.978 1308.68 137.699C1305.21 136.785 1301.85 135.322 1298.74 133.615C1294.05 131.054 1289.72 127.823 1285.64 124.409C1284.6 123.555 1283.69 122.58 1282.77 121.665C1281.86 120.69 1280.94 119.775 1280.03 118.8C1278.26 116.849 1276.49 114.837 1274.91 112.703C1275.82 113.679 1276.8 114.594 1277.71 115.508C1278.69 116.422 1279.66 117.337 1280.64 118.19C1281.61 119.044 1282.65 119.897 1283.62 120.751C1284.66 121.604 1285.7 122.397 1286.67 123.25C1290.64 126.664 1294.9 129.774 1299.48 132.274C1304.05 134.773 1308.99 136.724 1314.11 137.029C1316.67 137.212 1319.23 136.907 1321.61 136.053C1323.98 135.261 1326.18 133.859 1328.07 132.152C1329.9 130.384 1331.36 128.249 1332.58 125.994C1333.74 123.677 1334.65 121.239 1335.39 118.739C1336.79 113.74 1337.46 108.497 1337.82 103.253C1337.88 101.973 1337.95 100.632 1338.01 99.2906C1338.07 97.9493 1338.01 96.6691 1338.13 95.3278C1338.25 92.7062 1338.37 90.0847 1338.43 87.4022L1338.49 85.3904C1338.49 85.0856 1338.49 84.6587 1338.62 84.3539C1338.62 84.2929 1338.68 84.232 1338.68 84.1711C1338.68 83.9882 1338.68 83.8664 1338.62 83.6835L1339.84 80.94C1340.02 80.5132 1340.2 80.0861 1340.38 79.6593L1341.97 76.0014L1342.76 74.1727L1343.13 73.2582L1343.31 72.8313C1343.37 72.6484 1343.37 72.5266 1343.43 72.3437V72.2827V72.3437C1343.43 72.2827 1343.49 72.2218 1343.49 72.0999C1344.1 69.5393 1344.41 66.9176 1344.71 64.296C1345.02 61.4916 1345.38 58.7481 1346.24 56.0656C1346.24 56.0046 1346.24 55.9438 1346.3 55.9438C1347.09 53.3832 1353.55 43.7505 1347.88 43.4457C1346.54 43.3847 1340.93 50.3347 1341.73 51.7369C1340.87 50.0908 1340.02 48.201 1338.07 47.8961C1336.85 47.7132 1335.63 48.0789 1334.53 48.6886C1334.17 48.8715 1332.15 50.4568 1331.91 50.3958C1330.57 49.8471 1328.98 49.1765 1327.58 49.5423C1324.53 50.3349 1321.91 52.9563 1321.24 56.0656C1321.18 56.3094 1321.12 56.6144 1321.12 56.8583C1320.94 59.3579 1320.69 61.7964 1320.51 64.296L1318.07 64.4181C1317.77 65.9422 1317.03 67.8322 1317.4 69.3564C1317.77 71.0025 1318.99 72.2827 1319.66 73.8068C1320.33 75.331 1320.75 76.916 1321.06 78.5621C1321.06 78.684 1321.12 78.867 1321.12 78.9889C1321.12 78.7451 1321.12 78.5624 1321.12 78.3186C1321.42 79.7817 1321.73 81.2445 1321.97 82.7077C1322.22 84.1708 1322.4 85.6343 1322.34 87.2194C1322.34 87.951 1322.28 88.8654 1322.03 89.536C1321.85 90.2676 1321.67 90.9382 1321.48 91.6698L1320.39 95.9375L1315.94 113.069L1315.63 114.289L1314.72 113.435L1302.83 102.583L1296.85 97.1568C1295.03 95.2059 1293.2 93.1941 1291.43 91.1822C1293.62 92.7673 1295.76 94.4134 1297.89 96.0595L1303.87 101.486L1314.84 111.484L1318.38 97.7664L1296.06 89.2312C1293.32 87.3412 1290.03 86.3661 1286.12 86.549C1273.38 87.2806 1266.25 104.96 1268.57 143.979C1268.69 145.625 1268.81 147.576 1268.93 149.649L1272.53 310.356L1272.71 319.135H1323.37V319.257ZM1309.96 201.653C1309.66 207.933 1309.29 214.212 1308.93 220.431C1308.26 231.1 1307.46 241.769 1306.73 252.438L1310.45 302.065C1313.01 303.345 1316 303.894 1318.92 304.137C1319.11 304.137 1319.29 304.199 1319.53 304.199C1319.78 304.26 1319.96 304.259 1320.2 304.32C1320.63 304.442 1321.06 304.564 1321.42 304.747C1322.22 305.113 1322.89 305.662 1323.5 306.21C1324.72 307.369 1325.57 308.71 1326.3 310.173C1327.76 313.039 1328.62 316.087 1329.17 319.196C1328.74 317.672 1328.25 316.209 1327.64 314.746C1327.03 313.283 1326.36 311.88 1325.57 310.6C1324.78 309.32 1323.8 308.1 1322.64 307.125C1322.09 306.637 1321.42 306.272 1320.81 306.028C1320.51 305.906 1320.14 305.784 1319.84 305.723C1319.66 305.662 1319.47 305.662 1319.35 305.662L1318.8 305.601C1317.22 305.479 1315.63 305.235 1314.05 304.869C1312.46 304.503 1310.94 303.954 1309.47 303.223C1308.01 302.491 1306.67 301.455 1305.57 300.114C1304.48 298.834 1303.74 297.248 1303.38 295.602C1303.19 294.81 1303.07 293.956 1303.07 293.163C1303.07 292.371 1303.01 291.579 1303.01 290.786C1303.01 289.201 1303.07 287.615 1303.07 286.03C1303.19 282.86 1303.38 279.751 1303.56 276.642C1303.93 270.362 1304.35 264.083 1304.84 257.864C1305.76 245.366 1306.67 232.807 1307.46 220.309C1307.83 214.029 1308.19 207.811 1308.5 201.531C1309.05 195.252 1309.41 189.033 1309.78 182.754C1309.96 189.094 1309.96 195.374 1309.96 201.653Z" fill="#1E2B3C"/>
<path d="M1308.44 201.591C1308.14 207.871 1307.77 214.09 1307.41 220.369C1306.61 232.867 1305.7 245.426 1304.78 257.924C1304.36 264.204 1303.87 270.422 1303.5 276.702C1303.32 279.811 1303.14 282.982 1303.02 286.091C1302.95 287.676 1302.89 289.261 1302.95 290.846C1302.95 291.639 1302.95 292.431 1303.02 293.224C1303.08 294.017 1303.14 294.87 1303.32 295.663C1303.69 297.309 1304.42 298.894 1305.52 300.174C1306.61 301.515 1307.95 302.491 1309.42 303.283C1310.88 304.076 1312.47 304.563 1313.99 304.929C1315.57 305.295 1317.16 305.539 1318.75 305.661L1319.29 305.722C1319.48 305.722 1319.66 305.783 1319.78 305.783C1320.15 305.844 1320.45 305.966 1320.76 306.088C1321.43 306.332 1322.04 306.697 1322.59 307.185C1323.74 308.099 1324.66 309.319 1325.51 310.66C1326.31 312.001 1326.98 313.403 1327.59 314.806C1328.19 316.269 1328.68 317.732 1329.11 319.256C1328.56 316.147 1327.71 313.099 1326.24 310.233C1325.51 308.831 1324.6 307.429 1323.44 306.27C1322.83 305.722 1322.16 305.173 1321.37 304.808C1321 304.625 1320.57 304.442 1320.15 304.381C1319.96 304.32 1319.72 304.259 1319.48 304.259C1319.23 304.198 1319.05 304.198 1318.87 304.198C1315.94 303.954 1312.95 303.405 1310.39 302.125C1310.27 302.064 1310.21 302.064 1310.09 302.003C1308.75 301.332 1307.59 300.418 1306.67 299.321C1305.76 298.223 1305.15 296.882 1304.78 295.419C1304.6 294.687 1304.54 293.956 1304.48 293.224C1304.48 292.431 1304.42 291.699 1304.42 290.907C1304.42 289.383 1304.48 287.798 1304.48 286.213C1304.6 283.104 1304.78 279.933 1304.97 276.824C1305.33 270.544 1305.76 264.326 1306.25 258.046C1306.37 256.217 1306.49 254.327 1306.67 252.498C1307.47 241.829 1308.2 231.16 1308.87 220.491C1309.23 214.211 1309.6 207.932 1309.91 201.713C1309.97 195.434 1309.97 189.155 1309.66 182.875C1309.36 189.094 1308.99 195.312 1308.44 201.591Z" fill="#EDCFC5"/>
<path d="M1348.37 64.536V65.7553C1348.37 66.1211 1348.68 66.426 1349.04 66.426H1354.29C1354.35 65.3896 1354.47 64.2923 1354.65 63.1339C1354.9 61.4268 1355.63 60.0247 1356.54 58.6835C1357.4 57.4032 1358.25 56.1227 1359.16 54.8424C1359.29 54.7205 1359.41 54.5985 1359.53 54.4766H1357.15H1348.98C1348.62 54.4766 1348.31 54.7815 1348.31 55.1473V56.3666H1346.12C1345.26 59.0491 1344.9 61.7926 1344.59 64.597H1348.37V64.536Z" fill="#E5AA20"/>
<path d="M1321.12 56.3047H1302.7C1302.34 56.3047 1302.03 56.6096 1302.03 56.9754V57.6461H1295.94C1295.81 57.6461 1295.69 57.7072 1295.57 57.7681C1295.39 57.89 1295.27 58.0729 1295.27 58.3168V62.5844C1295.27 62.9502 1295.57 63.2551 1295.94 63.2551H1297.22H1301.97V63.9255C1301.97 64.2913 1302.28 64.5962 1302.64 64.5962H1320.26C1320.44 62.0965 1320.69 59.6581 1320.87 57.1585C1320.99 56.8536 1321.05 56.5486 1321.12 56.3047Z" fill="#E5AA20"/>
<path d="M1374.53 54.5979C1372.94 56.305 1371.85 56.2441 1370.44 54.659C1370.57 55.3905 1370.02 56.7316 1369.29 57.2194C1368.8 57.5852 1368.19 57.4632 1367.76 57.2194C1367.58 57.4632 1367.33 57.6462 1367.15 57.89C1366.66 58.4997 1366.3 59.2312 1365.93 59.9628C1365.75 60.3286 1365.63 60.7556 1365.44 61.1214C1365.26 61.5482 1365.14 61.8529 1365.08 62.2187C1364.9 62.9503 1364.96 63.682 1365.14 64.4136C1365.32 65.0842 1365.63 65.6937 1365.93 66.3643H1377.82H1396.35V68.6812C1396.35 69.047 1396.66 69.3519 1397.03 69.3519H1443.97V71.9123C1443.97 72.2781 1444.27 72.583 1444.64 72.583H1491.46V74.3509C1491.46 74.7167 1491.77 75.0216 1492.13 75.0216H1494.94C1495.3 75.0216 1495.61 74.7167 1495.61 74.3509V46.4285C1495.61 46.0627 1495.3 45.7578 1494.94 45.7578H1492.13C1491.77 45.7578 1491.46 46.0627 1491.46 46.4285V48.1965H1444.64C1444.27 48.1965 1443.97 48.5014 1443.97 48.8672V51.4276H1397.03C1396.66 51.4276 1396.35 51.7325 1396.35 52.0982V54.4151H1380.08H1374.71C1374.59 54.5371 1374.59 54.5979 1374.53 54.5979Z" fill="#E5AA20"/>
<path d="M1343.19 73.1953L1343.13 73.4391L1342.82 74.2926L1343.13 73.5612C1343.13 73.5002 1343.13 73.3172 1343.19 73.1953Z" fill="#1E2B3C"/>
<path d="M1303.62 101.667L1297.64 96.241C1295.51 94.5949 1293.37 92.9488 1291.18 91.3637C1292.95 93.3755 1294.78 95.3873 1296.61 97.3382L1302.58 102.764L1314.47 113.616L1315.38 114.47L1315.69 113.251L1320.14 96.1189L1321.24 91.8513C1321.42 91.1197 1321.6 90.449 1321.78 89.7174C1322.03 89.0468 1322.09 88.1934 1322.09 87.4008C1322.09 85.8767 1321.91 84.3529 1321.72 82.8897C1321.48 81.4265 1321.18 79.9632 1320.87 78.5C1320.87 78.7439 1320.87 78.9265 1320.87 79.1704C1320.93 81.9139 1321.05 84.6572 1320.75 87.2788C1320.63 88.0104 1320.44 88.5593 1320.26 89.3519C1320.08 90.0835 1319.89 90.7541 1319.71 91.4857L1318.61 95.7533L1318.07 97.8872L1314.53 111.605L1303.62 101.667Z" fill="#EDCFC5"/>
<path d="M1336.84 119.23C1338.31 114.048 1338.98 108.743 1339.34 103.439C1339.4 102.098 1339.46 100.757 1339.53 99.4766C1339.59 98.4401 1339.59 97.4037 1339.59 96.4282C1339.59 96.1234 1339.59 95.8186 1339.53 95.5137C1339.4 92.8312 1339.22 90.2097 1339.04 87.5881L1338.92 85.6377C1338.86 85.2719 1338.92 85.028 1338.98 84.7232C1339.04 84.4184 1339.16 84.1135 1339.22 83.8087C1339.59 82.5284 1340.07 81.3087 1340.56 80.0894L1342.03 76.4314L1342.76 74.6024V74.5417L1343.06 73.6879L1343.12 73.4441L1343.18 73.2613C1343.24 73.1394 1343.31 72.9564 1343.24 72.8345V72.7734V72.8345C1343.24 72.9564 1343.18 73.1394 1343.12 73.2613V73.3224L1342.94 73.749L1342.57 74.6635L1341.78 76.4927L1340.2 80.1507C1340.01 80.5775 1339.83 81.004 1339.65 81.4308C1339.34 82.2233 1338.98 83.0159 1338.73 83.8694C1338.67 84.1133 1338.55 84.357 1338.49 84.6619C1338.49 84.7228 1338.43 84.7837 1338.43 84.8446C1338.31 85.1495 1338.31 85.5764 1338.31 85.8812L1338.25 87.893C1338.18 90.5145 1338.06 93.197 1337.94 95.8186C1337.82 97.1598 1337.88 98.4401 1337.82 99.7814C1337.76 101.123 1337.7 102.403 1337.64 103.744C1337.27 108.987 1336.6 114.231 1335.2 119.23C1334.47 121.729 1333.61 124.168 1332.39 126.485C1331.23 128.741 1329.71 130.874 1327.88 132.642C1326.05 134.41 1323.86 135.752 1321.42 136.545C1319.04 137.398 1316.42 137.642 1313.92 137.52C1308.8 137.215 1303.86 135.264 1299.29 132.765C1294.72 130.204 1290.45 127.156 1286.49 123.742C1285.51 122.888 1284.41 122.095 1283.44 121.242C1282.4 120.388 1281.43 119.534 1280.45 118.681C1279.47 117.827 1278.5 116.913 1277.52 115.999C1276.55 115.084 1275.63 114.169 1274.72 113.194C1276.3 115.328 1278.07 117.34 1279.84 119.291C1280.75 120.266 1281.67 121.242 1282.58 122.156C1283.5 123.071 1284.47 124.046 1285.45 124.9C1289.53 128.314 1293.86 131.484 1298.56 134.106C1301.67 135.813 1305.02 137.276 1308.49 138.19C1310.26 138.617 1312.03 138.922 1313.86 139.044C1316.6 139.227 1319.35 138.922 1321.97 138.007C1324.59 137.154 1326.97 135.63 1328.98 133.74C1330.75 132.033 1332.15 130.082 1333.31 128.009C1333.49 127.704 1333.61 127.46 1333.8 127.155C1335.14 124.351 1336.11 121.79 1336.84 119.23Z" fill="#EDCFC5"/>
<path d="M1356.18 59.175C1357.58 58.0776 1358.92 56.9803 1360.26 55.8829C1360.87 55.2732 1361.42 54.6026 1362.03 54.0539L1362.46 53.627C1362.58 53.5051 1362.76 53.3833 1362.89 53.2004C1363.19 52.9566 1363.56 52.6516 1363.86 52.4077C1364.53 51.92 1365.2 51.4322 1365.93 51.1273C1366.3 51.0054 1366.6 50.8835 1366.91 50.8225C1367.03 50.8225 1367.15 50.8226 1367.21 50.8835C1367.28 50.8835 1367.28 50.9446 1367.28 50.9446C1367.34 51.0055 1367.4 51.0666 1367.4 51.0666C1367.76 51.4934 1368.01 52.2858 1368.01 53.0174C1368.01 53.7489 1367.89 54.4805 1367.52 55.0901C1367.4 55.2121 1367.34 55.395 1367.21 55.456L1367.03 55.6391L1366.79 55.8829C1366.48 56.1877 1366.12 56.5533 1365.87 56.9191C1365.32 57.6507 1364.9 58.5045 1364.47 59.2971C1364.29 59.7238 1364.11 60.0896 1363.92 60.5164C1363.74 60.8822 1363.56 61.3697 1363.43 61.8575C1363.19 62.8329 1363.25 63.8695 1363.5 64.784C1363.74 65.6985 1364.17 66.6128 1364.59 67.3444C1365.02 68.076 1365.32 68.8688 1365.69 69.6613C1366.12 70.3929 1366.54 71.1243 1366.91 71.9169C1367.28 72.7095 1367.58 73.4411 1367.7 74.3556C1367.95 73.502 1367.82 72.5876 1367.7 71.6731C1367.58 70.7586 1367.34 69.9052 1367.09 69.0517C1366.73 68.2591 1366.36 67.4663 1365.93 66.6737C1365.87 66.6128 1365.81 66.4909 1365.81 66.4299C1365.45 65.7593 1365.14 65.1498 1365.02 64.4792C1364.84 63.7476 1364.78 62.955 1364.96 62.2843C1365.02 61.9186 1365.14 61.6135 1365.32 61.1868C1365.51 60.76 1365.63 60.3943 1365.81 60.0285C1366.18 59.2969 1366.54 58.5653 1367.03 57.9557C1367.21 57.7118 1367.4 57.5289 1367.64 57.285C1367.7 57.224 1367.76 57.1631 1367.82 57.0412L1368.07 56.8584L1368.31 56.5536C1368.49 56.3707 1368.68 56.1268 1368.8 55.9439C1369.35 55.0294 1369.53 54.0538 1369.53 53.0174C1369.47 52.0419 1369.23 51.0056 1368.56 50.1521C1368.43 50.0302 1368.37 49.9692 1368.25 49.8473C1368.13 49.7254 1367.95 49.6034 1367.76 49.5425C1367.46 49.4205 1367.09 49.3594 1366.79 49.3594C1366.18 49.3594 1365.69 49.6034 1365.26 49.7863C1364.35 50.213 1363.62 50.7007 1362.89 51.2494C1362.52 51.4933 1362.15 51.798 1361.85 52.1029C1361.67 52.2248 1361.48 52.4079 1361.36 52.5908L1360.87 53.0784C1360.39 53.5661 1359.9 54.0538 1359.41 54.5415C1359.29 54.6634 1359.17 54.7854 1359.05 54.9074C1358.13 56.1877 1357.28 57.4069 1356.42 58.7481C1356.42 58.8091 1356.3 58.9921 1356.18 59.175Z" fill="#EDCFC5"/>
</svg>
