<svg width="1195" height="844" viewBox="0 0 1195 844" fill="none" xmlns="http://www.w3.org/2000/svg">
<path d="M734.578 312.802C734.578 312.802 735.677 313.402 736.577 313.102C737.177 312.902 734.478 310.502 732.078 308.602C731.978 309.702 731.778 310.802 731.578 311.902C733.478 312.502 734.578 312.802 734.578 312.802Z" fill="white"/>
<path d="M361.445 333.497C357.646 334.497 353.846 335.497 350.047 336.397L392.44 379.897L413.136 369.697C405.038 355.197 399.039 339.497 395.439 322.797C393.44 323.597 391.44 324.297 389.34 324.997C380.142 328.197 370.843 330.997 361.445 333.497Z" fill="#FFD9DA"/>
<path d="M736.774 279.203C736.074 279.103 734.875 278.903 733.375 278.703C733.375 278.903 733.375 279.203 733.375 279.403C734.775 279.303 735.974 279.203 736.774 279.203Z" fill="white"/>
<path d="M750.269 309.703C754.768 311.503 768.966 316.403 776.465 322.703C779.364 325.103 784.263 330.703 789.262 336.603C791.962 337.703 794.662 338.903 797.461 340.003C791.062 330.803 787.163 324.203 787.163 324.203C787.163 324.203 787.163 324.203 787.263 324.103C781.864 315.703 776.964 306.503 769.166 301.903C769.166 301.903 751.969 295.203 738.671 296.703C736.771 296.903 734.872 297.103 733.072 297.303C732.972 299.003 732.872 300.703 732.672 302.403C738.071 303.903 746.869 308.303 750.269 309.703Z" fill="#FFD9DA"/>
<path d="M241.663 651.1C240.863 653 240.163 655 239.763 657C238.063 665.3 236.964 673.8 237.364 682.2C237.563 686.4 238.163 690.6 239.463 694.5C240.363 697.2 241.663 699.8 243.363 702.1C244.562 685.5 246.062 663.3 247.862 638.5C246.662 640.8 245.462 643.1 244.262 645.4C243.363 647.2 242.463 649.2 241.663 651.1Z" fill="#FFD9DA"/>
<path d="M1195 0H0V844H1195V0ZM874.554 251.1L880.952 244.2L882.652 242.4L886.951 237.7L880.853 232.1L887.851 224.5C896.05 215.6 909.948 215.1 918.746 223.3C926.845 230.8 928.045 243 921.946 251.8C921.446 252.5 921.946 253.5 922.846 253.5C924.545 253.4 925.945 253.9 926.445 255C927.445 256.9 925.745 259.8 922.546 261.5C919.346 263.2 915.947 263 914.947 261.1C914.747 260.7 914.647 260.3 914.647 259.8L912.047 262.6C903.849 271.5 889.951 272 881.153 263.8C877.553 260.4 875.253 255.8 874.554 251.1ZM264.356 247.7C265.355 246.9 266.755 246.9 268.355 247.6C269.155 248 270.055 247.2 269.855 246.4C267.455 235.9 273.054 225 283.352 221.1C294.651 216.8 307.349 222.4 311.648 233.7L315.347 243.3L307.648 246.3L309.948 252.3L310.848 254.6L314.247 263.4C311.848 267.5 308.048 270.9 303.249 272.7C291.951 277 279.253 271.4 274.954 260.1L273.554 256.6C273.354 257 273.154 257.4 272.854 257.7C271.155 259.1 267.955 258 265.655 255.2C263.256 252.4 262.656 249.1 264.356 247.7ZM955.54 733.3L954.94 741.4L850.858 742C850.858 742 850.858 742 850.858 741.9L836.76 742C836.76 742 832.661 721.4 851.257 714.4C878.353 704.3 883.252 687 881.952 674.8C877.153 630.4 877.953 493.2 878.053 413.3C878.053 413.1 878.053 413 878.053 412.8C874.854 415.1 871.354 417.1 867.755 418.7C863.555 420.5 858.956 421.6 854.357 421.7C849.758 421.9 845.158 421.4 840.759 420.3C831.961 418.1 823.662 414.2 816.163 409.3C808.565 404.5 801.566 398.9 794.867 392.9C791.668 389.7 788.668 386.5 785.668 383.1C782.769 379.8 779.869 376.3 777.27 372.7V372.6C767.172 362.3 752.874 349.1 742.676 344.8C737.676 342.7 731.878 340.1 725.879 337.5C712.681 379.6 683.685 414.7 645.792 435.8H741.576V741.5H435.827V435.8H479.52C464.322 427.3 450.525 416.6 438.727 404.1C418.23 422.8 388.935 440.9 361.539 427.5C352.241 422.9 344.042 417.9 336.944 412.6C326.545 494.5 305.549 631.2 300.85 674.9C299.55 687.2 304.349 704.4 331.544 714.5C350.241 721.5 346.042 742.1 346.042 742.1L273.454 741.7C273.454 741.8 273.454 741.8 273.454 741.8L228.362 741.4L166.672 691.8C166.672 691.8 254.457 476.1 264.456 406C270.755 315.2 270.355 292.7 297.15 284.4C301.35 283.1 305.149 282.7 308.748 283L392.934 266.8C402.633 181.6 475.02 115.4 562.806 115.4C651.591 115.4 724.579 183.1 732.977 269.8C745.375 269.4 764.072 270.5 765.772 270.6C764.072 270.3 749.874 262.8 753.774 259.4C756.673 256.9 762.772 259 769.171 261.9C775.57 264.8 784.569 268.2 784.569 268.2L816.763 299L817.263 299.5L818.363 300.6L818.263 300.7L856.257 342.1L882.352 304.7C883.552 302.5 884.852 300.6 886.452 298.9L887.052 298.1L887.152 298.2C890.851 294.4 895.55 291.7 901.749 290.3C929.744 283.6 950.341 295.6 954.64 418.4C957.14 498.5 955.54 733.3 955.54 733.3Z" fill="#FFD9DA"/>
<path d="M392.431 379.898L350.038 336.398C344.339 337.798 338.64 339.098 332.941 340.298C328.142 341.098 323.342 341.898 318.443 342.598C313.644 343.298 308.745 343.898 303.946 344.398C313.444 342.398 322.943 340.298 332.441 337.898C341.939 335.898 351.438 333.698 360.736 331.198C370.135 328.698 379.433 325.898 388.532 322.698C393.131 321.098 397.63 319.398 402.029 317.498C406.429 315.598 410.828 313.598 415.127 311.298C419.326 308.998 423.426 306.498 427.225 303.498L430.125 301.398C431.124 300.698 432.024 299.898 432.924 299.098L435.724 296.798L437.123 295.598L438.423 294.398C445.722 287.998 452.421 280.998 458.92 273.798C465.419 266.598 471.518 259.098 477.417 251.298C483.616 243.798 489.515 236.098 495.314 228.198C495.314 228.198 535.107 199.998 543.706 194.598C552.304 189.198 564.602 186.198 560.503 179.798C557.503 174.998 529.808 188.198 529.808 188.198C529.808 188.198 532.507 181.298 538.506 174.598C545.205 166.998 562.202 162.298 560.203 154.598C558.803 149.198 527.208 164.698 527.208 164.698C527.208 164.698 530.508 159.698 533.607 156.298C537.307 152.298 547.805 149.898 542.006 143.798C539.406 140.998 520.709 149.298 509.011 160.298C504.712 164.398 500.613 167.498 497.313 169.798C499.613 166.098 501.613 162.698 502.312 161.198C504.012 157.098 506.612 150.498 502.312 148.698C500.313 147.898 487.215 160.898 486.415 164.098C486.315 164.498 486.115 165.098 485.815 165.898L462.619 210.498L398.03 265.698L392.731 266.698L308.545 282.898C304.946 282.598 301.146 283.098 296.947 284.298C270.151 292.598 270.451 315.098 264.252 405.898C254.254 476.098 166.469 691.698 166.469 691.698L228.158 741.298L273.251 741.698C273.451 737.398 273.051 733.098 272.151 728.998C271.251 724.898 269.551 720.798 266.852 717.798C265.452 716.298 263.852 714.998 261.953 714.198C261.053 713.798 260.053 713.398 259.053 713.198C258.053 712.998 256.954 712.798 255.954 712.598C251.654 711.698 247.455 709.698 244.056 706.598C240.756 703.498 238.457 699.398 237.057 695.198C235.657 690.998 234.957 686.598 234.757 682.198C234.357 673.398 235.557 664.798 237.257 656.298C237.757 654.098 238.457 651.998 239.356 649.998C240.156 647.998 241.056 645.998 242.056 644.098C243.956 640.198 245.955 636.398 248.055 632.698C252.254 625.198 256.554 617.798 260.853 610.398C269.351 595.598 277.75 580.598 285.449 565.298C300.946 534.798 314.144 503.098 323.442 470.198C324.042 468.098 324.542 466.098 325.142 463.998C325.742 461.898 326.242 459.898 326.642 457.798C327.542 453.598 328.242 449.398 328.942 445.198C330.241 436.798 331.041 428.298 331.641 419.698C333.241 402.698 333.141 385.498 332.241 368.398C333.141 376.898 333.941 385.498 334.141 394.098C334.241 396.198 334.341 398.398 334.341 400.498L334.441 406.898C334.341 411.198 334.341 415.498 334.141 419.798C333.641 428.398 332.641 436.998 331.441 445.498C330.841 449.798 330.041 453.998 329.141 458.198C328.742 460.298 328.142 462.398 327.642 464.498C327.142 466.598 326.542 468.598 325.942 470.698C316.644 503.798 303.346 535.698 287.848 566.298C280.05 581.598 271.651 596.598 263.153 611.498C258.853 618.898 254.554 626.298 250.455 633.798C249.655 635.298 248.855 636.798 248.055 638.198C246.355 662.998 244.756 685.198 243.556 701.798C244.256 702.798 245.056 703.698 245.955 704.598C248.855 707.498 252.554 709.498 256.554 710.498C257.553 710.798 258.553 710.998 259.653 711.298C260.753 711.598 261.753 711.998 262.753 712.498C264.752 713.498 266.552 714.998 267.952 716.698C270.751 720.198 272.251 724.398 272.951 728.698C273.651 732.998 273.751 737.298 273.351 741.598C273.351 741.598 273.351 741.598 273.351 741.498L345.939 741.898C345.939 741.898 350.038 721.298 331.441 714.298C304.346 704.198 299.446 686.898 300.746 674.698C305.445 630.998 326.442 494.298 336.84 412.398C343.939 417.598 352.138 422.698 361.436 427.298C388.932 440.698 418.227 422.598 438.623 403.898C428.825 393.498 420.226 381.898 413.227 369.398L392.431 379.898Z" fill="#1E2B3C"/>
<path d="M679.586 316.9C684.886 311.2 705.482 316.8 705.482 316.8C705.482 316.8 697.483 311.6 695.484 310.7C690.885 308.4 696.084 304.6 704.782 305.2C708.282 305.4 724.779 310.1 731.578 312C731.778 310.9 731.878 309.8 732.078 308.7C730.978 307.8 729.978 307.1 729.378 306.7C727.578 305.5 726.079 303.4 729.078 302.2C729.778 301.9 731.078 302.1 732.777 302.5C732.977 300.8 733.077 299.1 733.177 297.4C733.377 293.8 733.577 290.1 733.577 286.5C733.577 284.1 733.477 281.8 733.377 279.5C733.377 279.3 733.377 279 733.377 278.8C733.277 275.8 733.077 272.9 732.777 269.9C724.379 183.3 651.391 115.5 562.606 115.5C474.821 115.5 402.533 181.7 392.734 266.9L398.034 265.9L462.623 210.7L485.819 166.1C486.119 165.4 486.319 164.8 486.419 164.3C487.319 161.1 500.416 148.2 502.316 148.9C506.615 150.6 504.016 157.3 502.316 161.4C501.616 162.9 499.616 166.4 497.317 170C500.616 167.7 504.616 164.6 509.015 160.5C520.713 149.5 539.41 141.2 542.009 144C547.808 150.1 537.31 152.5 533.611 156.5C530.511 159.9 527.212 164.9 527.212 164.9C527.212 164.9 558.807 149.3 560.206 154.8C562.206 162.5 545.209 167.2 538.51 174.8C532.511 181.6 529.811 188.4 529.811 188.4C529.811 188.4 557.507 175.2 560.506 180C564.606 186.4 552.308 189.3 543.709 194.8C535.111 200.2 495.317 228.4 495.317 228.4C492.918 232.6 490.318 236.8 487.619 240.8C486.319 242.9 484.919 244.9 483.619 246.9L479.42 252.9C473.521 260.7 467.322 268.2 460.823 275.5C454.324 282.8 447.525 289.8 440.126 296.3L438.727 297.5L437.327 298.7L434.527 301C433.528 301.8 432.628 302.6 431.628 303.3L428.628 305.5C424.729 308.5 420.53 311.1 416.23 313.4C411.931 315.8 407.432 317.8 402.933 319.7C400.433 320.8 397.833 321.8 395.334 322.8C398.933 339.5 404.932 355.2 413.031 369.7C420.03 382.3 428.628 393.9 438.427 404.2C450.325 416.7 464.122 427.4 479.22 435.9H435.527V741.6H741.276V435.8H645.492C683.386 414.7 712.381 379.6 725.579 337.5C710.281 330.8 693.984 323.8 688.385 323.4C681.086 323 676.187 320.5 679.586 316.9Z" fill="#1E98F5"/>
<path d="M901.447 290.098C895.348 291.598 890.549 294.198 886.85 297.998L886.75 297.898L886.15 298.698C884.65 300.398 883.25 302.398 882.05 304.498L855.955 341.898L817.961 300.498L818.061 300.398L816.961 299.298L816.461 298.798L784.267 267.998C784.267 267.998 775.268 264.598 768.869 261.698C762.47 258.798 756.371 256.698 753.472 259.198C749.573 262.598 763.87 270.098 765.47 270.398C763.77 270.298 745.073 269.198 732.675 269.598C732.975 272.498 733.175 275.498 733.275 278.498C734.775 278.698 735.975 278.898 736.675 278.998C735.875 278.998 734.675 279.098 733.275 279.198C733.375 281.498 733.475 283.898 733.475 286.198C733.475 289.898 733.375 293.498 733.075 297.098C734.875 296.898 736.775 296.698 738.674 296.498C751.972 294.998 769.169 301.698 769.169 301.698C776.968 306.298 781.767 315.498 787.266 323.898C787.166 323.998 787.166 323.998 787.166 323.998C787.166 323.998 790.966 330.598 797.465 339.798C799.864 340.898 802.364 341.898 804.763 342.998L820.561 351.098L851.056 366.698L867.153 334.898L875.451 318.398C878.551 313.098 881.65 307.798 884.85 302.498C882.55 308.198 880.151 313.898 877.651 319.498L869.353 335.898L852.755 368.798L852.155 369.898L851.056 369.298L819.461 353.098L803.663 344.998C798.564 341.998 793.465 338.998 788.466 335.798C788.766 335.898 789.066 335.998 789.366 336.198C784.367 330.298 779.368 324.698 776.568 322.298C769.069 315.998 754.872 311.098 750.372 309.298C746.973 307.898 738.174 303.498 732.875 302.098C731.276 301.598 729.976 301.498 729.176 301.798C726.176 302.998 727.676 305.098 729.476 306.298C730.076 306.698 731.076 307.398 732.175 308.298C734.575 310.198 737.275 312.598 736.675 312.798C735.775 313.098 734.675 312.498 734.675 312.498C734.675 312.498 733.575 312.198 731.676 311.598C724.877 309.698 708.379 304.998 704.88 304.798C696.082 304.198 690.882 307.998 695.582 310.298C697.481 311.298 705.58 316.398 705.58 316.398C705.58 316.398 684.983 310.898 679.684 316.498C676.385 320.098 681.184 322.598 688.683 322.998C694.282 323.298 710.579 330.398 725.877 337.098C731.876 339.698 737.675 342.298 742.674 344.398C752.972 348.798 767.17 361.898 777.268 372.198V372.298C783.367 378.798 789.766 384.898 796.565 390.598C803.064 396.598 810.062 401.998 817.461 406.798C824.86 411.498 832.859 415.398 841.357 417.398C849.756 419.498 858.854 419.398 866.753 415.898C870.752 414.198 874.452 411.998 877.951 409.298C881.45 406.698 884.75 403.798 887.849 400.698C890.949 397.598 893.948 394.298 896.748 390.898C899.547 387.498 902.247 383.998 904.847 380.398C909.946 373.198 914.745 365.698 919.144 357.998C923.943 350.498 928.343 342.798 932.542 334.998C930.942 339.098 929.142 343.198 927.243 347.298C925.343 351.298 923.444 355.298 921.344 359.298C916.945 366.998 912.145 374.598 906.946 381.898C904.347 385.498 901.647 389.098 898.748 392.598C895.948 396.098 892.849 399.398 889.749 402.598C886.65 405.798 883.15 408.798 879.551 411.498C879.051 411.798 878.651 412.198 878.151 412.498C878.151 412.698 878.151 412.798 878.151 412.998C878.151 492.798 877.251 630.098 882.05 674.498C883.35 686.798 878.551 703.998 851.356 714.098C832.659 721.098 836.858 741.698 836.858 741.698L850.955 741.598V741.698C849.756 735.898 850.156 729.698 852.755 724.198C854.055 721.498 855.955 718.998 858.354 716.998C859.554 715.998 860.854 715.098 862.154 714.398C863.454 713.598 864.953 712.998 866.253 712.498C871.652 710.498 876.851 707.698 881.351 704.298C883.65 702.498 885.75 700.598 887.549 698.398C889.349 696.198 890.949 693.798 892.149 691.298C894.548 686.198 895.448 680.398 894.848 674.798C894.248 668.898 893.649 663.098 893.149 657.198C892.049 645.498 891.049 633.698 890.149 621.998C888.249 598.498 886.45 574.998 884.75 551.498C883.95 539.798 883.05 527.998 882.35 516.298C881.95 504.498 881.55 492.698 881.25 480.998L884.75 516.198L887.249 551.398C888.949 574.898 890.749 598.398 892.649 621.798C893.649 633.498 894.648 645.298 895.648 656.998C896.148 662.898 896.748 668.698 897.348 674.598C898.048 680.698 897.048 686.898 894.448 692.498C893.148 695.298 891.449 697.798 889.549 700.198C887.549 702.498 885.35 704.598 882.95 706.398C878.151 710.098 872.752 712.798 867.253 715.098L865.253 715.898C864.553 716.098 863.953 716.398 863.354 716.698C862.054 717.298 860.854 717.998 859.754 718.798C857.454 720.398 855.555 722.598 854.155 725.098C852.755 727.598 851.855 730.398 851.356 733.198C850.856 736.098 850.756 738.998 851.156 741.898L955.238 741.298L955.838 733.198C955.838 733.198 957.438 498.498 954.638 418.098C949.939 295.398 929.442 283.398 901.447 290.098ZM757.871 326.198C754.172 324.298 750.172 323.098 746.173 322.398C745.173 322.198 744.173 322.098 743.074 322.098C742.074 321.998 740.974 321.998 739.874 321.998C737.775 321.898 735.575 321.798 733.475 321.598C729.176 321.298 724.977 320.798 720.777 320.398C716.578 319.998 712.279 319.598 708.179 319.598C707.18 319.598 706.18 319.698 705.18 319.898C704.68 319.998 704.28 320.098 703.98 320.298C703.58 320.498 703.18 320.798 702.78 320.998C702.48 321.298 702.18 321.498 702.08 321.798C701.98 322.098 701.981 322.198 701.981 322.398C702.081 322.798 702.78 323.498 703.58 323.998C705.18 324.998 707.18 325.798 709.079 326.498C710.079 326.798 711.079 327.198 712.179 327.598L713.679 328.198C714.178 328.398 714.678 328.598 715.178 328.898C719.078 330.898 722.477 333.298 726.376 335.098C722.177 334.198 718.178 332.398 714.178 331.098C713.179 330.798 712.179 330.398 711.279 329.998C710.279 329.598 709.279 329.298 708.279 328.998C706.18 328.298 704.18 327.498 702.18 326.298C701.681 325.998 701.181 325.598 700.781 325.098C700.281 324.598 699.881 324.098 699.681 323.198C699.381 322.398 699.581 321.398 699.981 320.698C700.381 319.998 700.881 319.498 701.381 319.098C701.881 318.698 702.38 318.398 702.88 318.098C703.48 317.798 704.18 317.598 704.68 317.498C705.88 317.298 706.98 317.198 708.079 317.198C712.479 317.198 716.678 317.598 720.977 317.998C725.177 318.398 729.476 318.798 733.675 319.198C735.775 319.398 737.875 319.498 739.974 319.598C740.974 319.598 742.074 319.698 743.174 319.698C744.273 319.798 745.373 319.898 746.473 320.098C750.772 320.798 754.972 322.198 758.971 324.098C762.77 326.398 766.17 329.098 768.969 332.398C765.47 329.698 761.771 327.698 757.871 326.198Z" fill="#1E2B3C"/>
<path d="M851.056 733.2C851.555 730.3 852.455 727.5 853.855 725.1C855.255 722.6 857.154 720.5 859.454 718.8C860.554 718 861.854 717.3 863.054 716.7C863.653 716.4 864.353 716.1 864.953 715.9L866.953 715.1C872.452 712.9 877.951 710.2 882.65 706.4C885.05 704.6 887.249 702.5 889.249 700.2C891.149 697.9 892.949 695.3 894.148 692.5C896.748 687 897.748 680.7 897.048 674.6C896.448 668.8 895.848 662.9 895.348 657C894.248 645.3 893.249 633.6 892.349 621.8C890.449 598.3 888.649 574.9 886.949 551.4L884.45 516.2L881.051 481C881.25 492.8 881.751 504.6 882.15 516.3C882.85 528.1 883.75 539.8 884.55 551.5C886.25 575 888.049 598.5 889.949 622C890.949 633.7 891.949 645.5 892.948 657.2C893.448 663.1 894.048 668.9 894.648 674.8C895.248 680.4 894.348 686.2 891.949 691.3C890.749 693.9 889.149 696.2 887.35 698.4C885.55 700.6 883.45 702.5 881.151 704.3C876.651 707.8 871.452 710.5 866.053 712.5C864.753 713 863.253 713.6 861.954 714.4C860.654 715.1 859.354 716 858.154 717C855.755 719 853.855 721.5 852.555 724.2C849.956 729.7 849.556 736 850.756 741.7C850.456 739 850.556 736.1 851.056 733.2Z" fill="#EDCFC5"/>
<path d="M881.255 263.899C890.154 272.099 903.951 271.599 912.15 262.699L914.749 259.899C914.749 260.399 914.849 260.799 915.049 261.199C916.049 263.099 919.449 263.299 922.648 261.599C925.848 259.899 927.547 256.999 926.547 255.099C925.948 253.999 924.548 253.499 922.948 253.599C922.048 253.599 921.548 252.599 922.048 251.899C928.147 243.099 927.047 230.899 918.849 223.399C909.95 215.199 896.152 215.699 887.954 224.599L880.955 232.199L887.054 237.799L882.755 242.499C884.654 244.199 887.154 245.099 889.754 245.099C890.453 245.099 891.053 245.599 891.053 246.299C891.053 246.999 890.554 247.599 889.854 247.599C889.754 247.599 889.554 247.599 889.454 247.599C886.354 247.599 883.355 246.499 881.055 244.399L874.656 251.299C875.256 255.799 877.556 260.399 881.255 263.899Z" fill="#1E2B3C"/>
<path d="M889.752 247.397C890.452 247.397 890.951 246.797 890.951 246.097C890.951 245.397 890.352 244.897 889.652 244.897C887.052 244.997 884.553 244.097 882.653 242.297L880.953 244.097C883.253 246.197 886.252 247.297 889.352 247.297C889.452 247.397 889.552 247.397 889.752 247.397Z" fill="#E5AA20"/>
<path d="M272.655 257.602C272.955 257.302 273.255 256.902 273.355 256.502L274.754 260.002C279.054 271.302 291.752 276.902 303.05 272.602C307.849 270.802 311.648 267.402 314.048 263.302L310.648 254.502C309.249 255.002 307.749 255.302 306.349 255.302C304.649 255.302 302.95 254.902 301.35 254.202C300.75 253.902 300.45 253.202 300.75 252.602C301.05 252.002 301.75 251.702 302.35 252.002C304.749 253.102 307.349 253.102 309.849 252.202L307.549 246.202L315.248 243.202L311.548 233.602C307.249 222.302 294.551 216.702 283.253 221.002C272.955 224.902 267.356 235.802 269.755 246.302C269.955 247.202 269.055 247.902 268.255 247.502C266.756 246.802 265.256 246.802 264.256 247.602C262.556 249.002 263.156 252.302 265.456 255.102C267.856 257.902 271.055 259.002 272.655 257.602Z" fill="#1E2B3C"/>
<path d="M302.347 252.001C301.747 251.701 300.947 252.001 300.747 252.601C300.547 253.201 300.747 254 301.347 254.2C302.946 254.9 304.646 255.301 306.346 255.301C307.846 255.301 309.245 255.001 310.645 254.501L309.745 252.2C307.346 253.1 304.646 253.101 302.347 252.001Z" fill="#E5AA20"/>
<path d="M272.849 729.002C272.049 724.802 270.649 720.502 267.85 717.002C266.45 715.302 264.65 713.802 262.651 712.802C261.651 712.302 260.551 711.902 259.551 711.602C258.451 711.302 257.452 711.102 256.452 710.802C252.452 709.702 248.753 707.702 245.853 704.902C244.954 704.002 244.154 703.102 243.454 702.102C241.754 699.802 240.454 697.302 239.555 694.502C238.255 690.602 237.655 686.402 237.455 682.202C237.055 673.802 238.255 665.302 239.854 657.002C240.254 655.002 240.954 653.002 241.754 651.102C242.554 649.202 243.454 647.202 244.354 645.302C245.454 643.002 246.653 640.702 247.953 638.402C248.753 636.902 249.553 635.402 250.353 634.002C254.552 626.502 258.851 619.102 263.051 611.702C271.649 596.802 279.948 581.802 287.747 566.502C303.344 535.902 316.642 504.002 325.84 470.902C326.44 468.802 326.94 466.802 327.54 464.702C328.14 462.602 328.64 460.502 329.04 458.402C329.939 454.202 330.739 449.902 331.339 445.702C332.639 437.202 333.539 428.602 334.039 420.002C334.239 415.702 334.239 411.402 334.339 407.102L334.239 400.702C334.239 398.602 334.139 396.402 334.039 394.302C333.839 385.702 333.039 377.202 332.139 368.602C333.039 385.702 333.139 402.902 331.539 419.902C330.939 428.402 330.139 436.902 328.84 445.402C328.24 449.602 327.44 453.802 326.54 458.002C326.14 460.102 325.64 462.102 325.04 464.202C324.54 466.302 323.94 468.302 323.341 470.402C314.142 503.302 300.944 535.102 285.347 565.502C277.548 580.802 269.25 595.702 260.751 610.602C256.452 618.002 252.153 625.402 247.953 632.902C245.854 636.702 243.854 640.402 241.954 644.302C241.054 646.202 240.054 648.202 239.255 650.202C238.455 652.202 237.655 654.302 237.155 656.502C235.455 665.002 234.255 673.602 234.655 682.402C234.855 686.802 235.555 691.102 236.955 695.402C238.355 699.602 240.554 703.702 243.954 706.802C247.253 709.902 251.553 711.802 255.852 712.802C256.952 713.102 258.052 713.202 258.951 713.402C259.951 713.602 260.951 714.002 261.851 714.402C263.75 715.202 265.35 716.502 266.75 718.002C269.55 721.102 271.149 725.102 272.049 729.202C272.949 733.302 273.349 737.602 273.149 741.902C273.749 737.602 273.649 733.202 272.849 729.002Z" fill="#EDCFC5"/>
<path d="M477.518 251.203C471.619 258.903 465.52 266.403 459.021 273.703C452.522 280.903 445.823 287.903 438.524 294.303L437.225 295.503L435.825 296.703L433.025 299.003C432.125 299.803 431.226 300.603 430.226 301.303L427.326 303.403C423.527 306.403 419.428 308.903 415.228 311.203C411.029 313.503 406.63 315.503 402.13 317.403C397.731 319.303 393.132 321.003 388.633 322.603C379.534 325.803 370.236 328.603 360.837 331.103C351.439 333.603 342.041 335.803 332.542 337.803C323.144 340.203 313.645 342.303 304.047 344.303C308.946 343.803 313.745 343.203 318.544 342.503C323.344 341.803 328.143 341.103 333.042 340.203C338.741 339.003 344.44 337.703 350.139 336.303C353.939 335.403 357.738 334.403 361.537 333.403C370.936 330.903 380.334 328.103 389.533 324.803C391.532 324.103 393.632 323.303 395.632 322.603C398.231 321.603 400.731 320.603 403.23 319.503C407.729 317.603 412.229 315.503 416.528 313.203C420.827 310.903 425.127 308.303 428.926 305.303L431.926 303.103C432.925 302.403 433.825 301.603 434.825 300.803L437.625 298.503L439.024 297.303L440.424 296.103C447.823 289.603 454.522 282.603 461.121 275.303C467.619 268.003 473.818 260.503 479.717 252.703L483.917 246.703C485.217 244.703 486.616 242.703 487.916 240.603C490.616 236.503 493.215 232.403 495.615 228.203C489.716 236.103 483.717 243.803 477.518 251.203Z" fill="#EDCFC5"/>
<path d="M879.353 411.797C882.953 409.097 886.352 406.097 889.551 402.897C892.751 399.697 895.75 396.397 898.55 392.897C901.45 389.497 904.149 385.897 906.749 382.197C911.948 374.897 916.747 367.397 921.146 359.597C923.246 355.597 925.146 351.597 927.045 347.597C928.945 343.597 930.745 339.497 932.344 335.297C928.145 343.197 923.746 350.897 918.946 358.297C914.547 365.997 909.848 373.497 904.649 380.697C902.05 384.297 899.45 387.797 896.55 391.197C893.751 394.597 890.751 397.897 887.652 400.997C884.552 404.097 881.253 406.997 877.753 409.597C874.254 412.197 870.555 414.497 866.555 416.197C858.657 419.697 849.658 419.797 841.16 417.697C832.661 415.597 824.662 411.797 817.264 407.097C809.865 402.397 802.866 396.897 796.367 390.897C789.568 385.197 783.169 379.097 777.07 372.597C779.67 376.197 782.569 379.597 785.469 382.997C788.368 386.397 791.468 389.597 794.667 392.797C801.266 398.797 808.365 404.397 815.964 409.197C823.562 413.997 831.761 417.997 840.56 420.197C844.959 421.297 849.558 421.797 854.158 421.597C858.757 421.397 863.356 420.297 867.555 418.597C871.255 416.997 874.654 414.997 877.854 412.697C878.453 412.397 878.853 412.097 879.353 411.797Z" fill="#EDCFC5"/>
<path d="M788.469 336.198C793.468 339.298 798.567 342.298 803.666 345.398L819.463 353.498L851.058 369.698L852.158 370.298L852.758 369.198L869.355 336.298L877.654 319.898C880.153 314.298 882.553 308.598 884.853 302.898C881.653 308.098 878.454 313.398 875.454 318.798L867.156 335.298L851.058 367.098L820.563 351.498L804.766 343.398C802.366 342.298 799.867 341.298 797.467 340.198C794.768 338.998 792.068 337.898 789.269 336.798C789.069 336.498 788.769 336.298 788.469 336.198Z" fill="#EDCFC5"/>
<path d="M758.974 323.999C755.074 322.099 750.875 320.699 746.476 319.999C745.376 319.799 744.276 319.699 743.176 319.599C742.076 319.499 740.977 319.499 739.977 319.499C737.877 319.399 735.777 319.299 733.678 319.099C729.478 318.799 725.279 318.299 720.98 317.899C716.781 317.499 712.481 316.999 708.082 317.099C706.982 317.099 705.882 317.199 704.683 317.399C704.083 317.499 703.483 317.699 702.883 317.999C702.383 318.299 701.883 318.599 701.383 318.999C700.883 319.399 700.383 319.899 699.983 320.599C699.584 321.299 699.384 322.299 699.683 323.099C699.883 323.899 700.383 324.499 700.783 324.999C701.283 325.499 701.683 325.799 702.183 326.199C704.183 327.499 706.282 328.199 708.282 328.899C709.282 329.199 710.282 329.599 711.282 329.899C712.281 330.299 713.181 330.699 714.181 330.999C718.18 332.299 722.18 334.099 726.379 334.999C722.48 333.199 718.98 330.799 715.181 328.799C714.681 328.499 714.181 328.299 713.681 328.099L712.181 327.499C711.182 327.099 710.182 326.799 709.082 326.399C707.082 325.699 705.183 324.999 703.583 323.899C702.783 323.399 702.083 322.699 701.983 322.299C701.883 322.099 701.983 321.999 702.083 321.699C702.183 321.499 702.483 321.199 702.783 320.899C703.083 320.599 703.483 320.399 703.983 320.199C704.283 319.999 704.683 319.899 705.183 319.799C706.082 319.599 707.082 319.599 708.182 319.499C712.281 319.499 716.581 319.899 720.78 320.299C724.979 320.699 729.279 321.099 733.478 321.499C735.578 321.699 737.777 321.799 739.877 321.899C740.977 321.899 741.976 321.999 743.076 321.999C744.076 322.099 745.076 322.199 746.176 322.299C750.275 322.899 754.174 324.199 757.874 326.099C761.773 327.599 765.473 329.599 768.972 332.099C766.172 328.899 762.773 326.199 758.974 323.999Z" fill="#EDCFC5"/>
</svg>
