<svg width="1195" height="844" viewBox="0 0 1195 844" fill="none" xmlns="http://www.w3.org/2000/svg">
<path d="M744.912 740.997C744.912 740.997 744.913 740.597 744.812 739.797C744.812 740.197 744.912 740.597 744.912 740.997Z" fill="#1E2B3C"/>
<path d="M973.453 417.203L974.353 425.303L986.15 529.503L997.947 633.703C998.847 642.403 1000.05 651.003 1001.15 659.703L1004.45 685.703L1011.04 737.703L1008.74 715.003L1005.85 685.503L1003.25 659.403C1002.35 650.703 1001.55 642.003 1000.55 633.303L988.749 529.103L976.852 425.003L975.553 414.203C974.953 415.203 974.253 416.203 973.453 417.203Z" fill="#EDCFC5"/>
<path d="M812.899 397.1L779.008 382L812.899 397.1Z" fill="#F45F63"/>
<path d="M387.703 332.498C387.703 332.498 390.402 331.298 393.902 329.598C394.801 328.198 395.701 326.798 396.701 325.398C392.702 328.698 387.703 332.498 387.703 332.498Z" fill="#F45F63"/>
<path d="M630.547 246.102C630.647 246.202 630.647 246.202 630.547 246.102V246.102Z" fill="#F45F63"/>
<path d="M500.578 363.398L516.674 409.098C525.572 408.898 525.872 405.198 530.171 404.098C530.371 403.998 530.571 404.098 530.671 404.198C534.47 372.098 537.869 347.398 537.869 347.398L500.578 363.398Z" fill="#FFD9DA"/>
<path d="M823.788 395.7C823.788 395.7 817.489 395.2 812.391 394.5C813.99 395.2 815.49 395.9 816.989 396.6C820.788 396.1 823.788 395.7 823.788 395.7Z" fill="white"/>
<path d="M397.5 327.9L418.095 297L397.5 327.9Z" fill="#F45F63"/>
<path d="M1195 0H0V844H1194.9V0H1195ZM917.37 178.3C939.964 178.3 958.359 196.7 958.359 219.3C958.359 220.4 958.259 221.5 958.259 222.6C963.558 225.7 967.557 230.7 969.257 236.7C970.256 236.5 971.256 236.3 972.256 236.3C978.854 236.3 984.253 241.7 984.253 248.3C984.253 254.9 978.854 260.3 972.256 260.3C969.557 260.3 967.157 259.4 965.158 258C960.759 263.6 953.961 267.3 946.263 267.3C939.064 267.3 932.566 264.1 928.167 259C924.768 259.9 921.169 260.4 917.47 260.4C914.67 260.4 911.971 260.1 909.372 259.6C906.972 269 898.374 276 888.177 276C883.078 276 878.28 274.2 874.58 271.2V261.7C873.981 261.6 873.481 261.1 873.481 260.5C873.481 259.9 873.981 259.4 874.58 259.3V252.9H866.283V242.6C866.283 234.7 870.481 227.7 876.78 223.9C876.58 222.4 876.48 220.9 876.48 219.4C876.38 196.6 894.775 178.3 917.37 178.3ZM261.234 171.8C283.829 171.8 302.224 190.2 302.224 212.8C302.224 215.7 301.924 218.5 301.324 221.1C305.823 225.1 308.623 230.9 308.623 237.4V247.7H300.325V254.1V256.6V266C296.626 269 291.827 270.8 286.728 270.8C276.231 270.8 267.433 263.4 265.333 253.5C263.934 253.6 262.634 253.7 261.234 253.7C238.64 253.7 220.245 235.3 220.245 212.7C220.245 190.1 238.64 171.8 261.234 171.8ZM426.993 741.5L322.919 740.9L322.319 732.8L316.421 582.8C316.421 582.8 302.924 563.1 284.529 533.1C278.53 558.3 271.632 583.2 264.834 608.1C261.234 621.2 257.635 634.3 254.236 647.4C252.537 654 250.837 660.6 249.337 667.2C247.838 673.8 246.438 680.5 245.838 687.1C245.838 687.5 245.738 687.9 245.738 688.3V689.5V690.7C245.738 691.1 245.838 691.5 245.838 691.9C245.938 693.5 246.338 695.1 246.738 696.6C247.638 699.7 249.437 702.4 251.737 704.6C254.036 706.8 256.936 708.4 260.035 709.5C263.134 710.7 266.333 711.4 269.632 711.9C271.232 712.2 272.931 712.4 274.631 712.6C276.531 712.8 278.23 713.5 279.83 714.4C282.929 716.3 285.228 719.2 286.928 722.1C290.427 728.1 292.427 734.7 293.726 741.4H183.854L213.646 484.5H213.546C213.646 483.7 213.746 482.9 213.946 482L222.844 404.9C224.644 386.7 226.143 371.2 226.743 364.1C226.843 363 226.943 361.7 227.043 360.3C227.043 357.3 227.043 354.4 227.143 351.4C227.643 346 228.343 340.7 229.442 335.5C230.442 330.2 231.742 325 233.541 320C238.24 301.8 246.138 284.7 259.535 280.5C274.331 275.9 288.128 277.2 300.425 290.5C305.823 296.4 309.422 305.3 311.622 314.8C313.421 319.8 314.521 325.4 315.221 331.3C329.617 312.1 353.611 280.4 359.81 271.6L361.509 268.8C361.509 268.8 364.609 266.8 366.708 267C368.807 267.2 369.807 267.5 370.907 267C372.007 266.5 374.406 264.1 379.405 267.9C384.504 271.7 394.901 283.9 394.901 283.9L395.201 290L408.597 305.9C408.597 305.9 407.898 310.2 403.299 309.3C398.6 308.4 394.101 304.4 394.101 304.4C394.101 304.4 393.301 312.5 392.901 312.7C392.501 312.9 387.803 314.2 386.203 310.3C384.603 306.4 382.604 295.2 382.604 295.2L376.406 291.4L369.307 297.8C369.307 297.8 376.206 297.9 378.505 300.5C380.804 303.1 381.904 306.4 380.704 307.5C379.505 308.6 364.309 311 362.709 310.6C361.909 310.4 360.809 309.5 359.71 308.6C358.81 315.7 355.911 336.1 350.412 357.3C353.511 356.2 356.511 355.2 359.61 354.2C359.61 354.2 365.008 342.2 367.908 338.9C370.807 335.6 379.605 323.9 383.804 320.8C388.103 317.6 398.2 316.3 400.799 316.1C401.499 316.1 401.999 316.3 402.299 316.6C409.197 306.1 415.596 296.4 416.296 295.2C417.895 292.6 420.794 291.2 422.094 291.3C423.394 291.3 424.493 292.2 424.493 292.2L425.593 294.4C425.593 294.4 425.393 294.2 425.193 294.1C425.593 294.4 425.793 295 425.493 295.6L408.797 321.7C411.797 319.1 412.796 314.9 415.396 312.2C418.195 309.2 423.094 310.2 423.094 310.2C424.593 313.2 413.096 335.1 413.096 335.1L412.996 344.2L404.199 362.5L379.505 376.9C376.106 381.1 372.606 385.1 368.907 388.9C365.208 392.8 361.409 396.6 357.51 400.3C349.412 407.4 340.914 413.9 331.817 419.7C328.018 422.1 324.119 424.3 320.12 426.3C320.819 427.8 321.419 429.3 322.219 430.8C333.916 454.6 355.411 484.3 372.007 536.6C388.103 587.5 383.004 616.1 376.905 673.6C375.606 685.9 385.403 703.7 412.496 713.8C431.192 720.9 426.993 741.5 426.993 741.5ZM636.04 741L602.949 453.7L589.752 454.1L584.653 741.1H474.781C474.781 741.1 480.08 714.5 494.276 713.4C516.17 711.7 523.469 702.1 524.068 690.6C525.468 663.5 519.47 597.5 519.27 532.9C519.27 517.7 521.169 492.5 523.869 465.6C517.87 461.1 511.572 456 506.873 452.1C506.873 452.1 447.188 404.6 452.786 355.1C458.685 302.6 563.559 276.9 596.65 277.7C609.747 278 621.844 281.4 632.341 286.2C631.841 285.5 631.441 284.9 631.042 284.2C628.742 280.4 626.943 276.5 625.443 272.3C624.543 271.9 623.743 271.5 622.844 271.1L622.144 273.4C621.444 275.6 619.045 276.6 616.945 275.6L605.948 270.1C605.348 269.8 604.948 269.4 604.548 268.9C603.748 268.5 603.249 267.9 602.849 267.2C598.05 270.2 591.951 271.1 586.053 269.2C581.554 267.7 577.955 264.8 575.555 261.2L578.255 253.1L579.055 250.7L580.854 245.2L573.656 242.8L576.555 233.8C579.954 223.3 591.352 217.6 601.849 221C605.348 222.2 608.347 224.2 610.647 226.8H610.747C610.847 226.8 610.847 226.7 610.947 226.7C611.047 226.7 611.147 226.7 611.247 226.7H611.846C612.246 226.7 612.746 226.8 613.146 226.9C613.146 226.9 613.546 226.9 614.246 226.9L615.845 221.8C616.645 219.3 619.644 218.4 621.644 220L631.641 227.9C631.841 228.1 632.041 228.2 632.141 228.4L633.041 229.1C633.841 229.8 634.341 230.7 634.441 231.8C638.44 235.3 643.838 240.3 645.138 242.7C646.938 246 659.035 267.4 660.734 270.3C684.328 279.6 740.614 305.8 738.315 343.5C735.715 385.1 696.125 394.6 653.236 361.2C655.335 369.5 657.235 377.9 659.135 386.2C661.034 394.6 662.934 402.9 664.733 411.3C668.032 428.1 671.132 445 674.131 461.9C677.13 478.8 679.829 495.7 682.229 512.7C682.829 516.9 683.428 521.2 684.028 525.4L684.928 531.8L685.728 538.2C686.228 542.5 686.628 546.7 687.028 551L688.127 563.8C690.927 598 692.926 632.2 695.225 666.4C695.825 674.9 696.325 683.5 697.325 691.9C697.525 692.9 697.625 693.9 697.825 694.9C698.125 695.9 698.325 696.9 698.625 697.9C699.224 699.9 700.024 701.7 701.224 703.3C702.424 704.9 703.923 706.2 705.623 707.1C706.023 707.3 706.523 707.5 707.022 707.7C707.422 707.9 707.922 708.1 708.422 708.3L709.822 708.8L711.321 709.2C713.321 709.8 715.42 710.1 717.42 710.4C719.519 710.7 721.519 710.8 723.818 711.1C726.018 711.4 728.217 712.1 730.217 713.2C732.216 714.2 734.016 715.6 735.515 717.2C738.615 720.4 740.614 724.3 742.014 728.4C743.313 732.1 744.013 736 744.413 739.9C744.513 740.6 744.513 741.1 744.513 741.1H636.04V741ZM901.874 740.6C901.874 740.6 907.172 714 921.369 712.9C943.263 711.2 950.561 701.6 951.161 690.1C952.061 671.8 927.867 596.9 911.971 530.3C907.572 537.6 903.073 544.8 898.474 552C891.676 562.7 884.878 573.3 877.78 583.7L874.88 658.3L873.381 695.8C872.481 708.3 871.681 720.8 870.681 733.2C870.681 732.8 870.681 732.5 870.681 732.1L870.082 740.2L766.008 740.8C766.008 740.8 761.909 720.2 780.504 713.2C807.597 703.1 817.495 685.2 816.095 673C809.897 615.5 804.898 586.9 820.994 536C835.59 490 858.584 468.3 871.481 447.3C861.484 451.5 852.286 454.9 845.488 457.3L844.488 457.7L844.688 457.8C844.688 457.8 820.694 470.2 816.595 472.7C812.496 475.2 806.198 474.8 803.998 475.2C803.898 475.2 803.798 475.2 803.698 475.3C801.399 477.3 791.601 486.4 787.402 488.3C782.803 490.4 770.807 494.7 769.907 489.6C769.107 484.5 774.306 484.3 779.204 481.2C780.204 480.6 781.304 479.8 782.504 478.8L779.604 479.1H779.504H779.404C777.805 479.1 776.205 479 774.406 478.7C773.506 478.5 772.506 478.2 771.606 477.3C771.406 477.1 771.206 476.8 771.006 476.5C770.906 476.2 770.807 475.9 770.707 475.6C770.607 475 770.707 474.5 770.807 474C770.807 473.9 770.807 473.9 770.807 473.8C769.307 472 770.207 468 775.605 463.3C782.004 457.8 800.099 453.4 798.799 443.5C797.5 433.7 776.005 442 776.205 433.2C776.305 430 780.304 428.8 784.803 427.2C789.302 425.6 800.599 424.4 807.697 425C811.796 425.4 818.594 426.9 823.493 428.2L808.397 418.8L803.398 411.2C803.398 411.2 782.004 398.9 781.604 395.6C781.604 395.6 785.203 392.1 789.102 393.2C792.701 394.1 795.9 397.1 799.799 397.7L771.706 384.6C771.206 384.3 771.006 383.7 771.106 383.2C771.006 383.5 770.906 383.7 770.906 383.7L770.607 381.3C770.607 381.3 771.106 380 772.206 379.2C773.306 378.5 776.405 378.1 779.204 379.4C780.404 380 791.001 384.8 802.499 389.9C802.499 389.4 802.798 389 803.498 388.7C805.798 387.4 814.995 383.2 820.294 383.5C825.593 383.9 839.289 389 843.488 390.3C847.687 391.5 858.684 398.7 858.684 398.7C865.083 396.9 871.481 395.1 877.88 393.6C878.08 393.6 878.279 393.5 878.479 393.5L874.68 360.7C874.68 360.7 872.681 342.1 874.38 323.6C874.48 313 876.08 303.7 881.079 296.9C881.479 296.1 881.979 295.3 882.478 294.6C892.876 279.3 911.671 272.6 932.666 283.1C933.866 283.7 935.065 284.4 936.165 285.3L936.465 285C936.465 285 938.065 286.6 940.764 289.4L941.364 289.2C941.364 289.2 941.364 289.5 941.364 290C957.56 307.4 1006.65 366.5 975.255 413.9L976.555 424.7L988.352 528.9L1000.15 633.1C1001.15 641.8 1001.95 650.5 1002.85 659.2L1005.45 685.3L1008.35 714.8L1011.35 740.4H901.874V740.6Z" fill="#FFD9DA"/>
<path d="M735.012 718.095C732.013 715.195 728.114 713.396 724.015 712.996C722.016 712.796 719.816 712.795 717.617 712.595C715.417 712.395 713.218 712.095 711.118 711.595L709.519 711.195C709.019 710.995 708.419 710.795 707.919 710.695L707.119 710.395C706.819 710.295 706.62 710.196 706.32 709.996C705.82 709.696 705.32 709.495 704.82 709.195C702.82 708.095 701.021 706.595 699.621 704.695C698.222 702.795 697.322 700.695 696.622 698.595C696.322 697.495 696.022 696.495 695.722 695.395C695.422 694.395 695.322 693.195 695.122 692.095C694.123 683.495 693.623 674.995 693.023 666.395C690.723 632.195 688.724 597.995 685.925 563.895L684.825 551.095C684.425 546.795 684.025 542.595 683.525 538.295L682.825 531.895L681.926 525.495C681.326 521.295 680.826 516.995 680.126 512.795C677.727 495.895 674.927 478.995 672.028 462.095C669.129 445.195 665.93 428.395 662.631 411.595L658.132 386.295L653.533 360.995C696.322 394.395 736.012 384.895 738.611 343.295C740.911 305.595 684.725 279.395 661.031 270.095C659.431 267.195 647.234 245.795 645.435 242.495C644.135 240.095 638.737 235.095 634.738 231.595C632.838 229.895 631.238 228.495 630.539 227.995C628.739 226.495 618.142 226.695 614.643 226.695C613.943 226.695 613.543 226.695 613.543 226.695C613.343 227.095 613.143 227.495 612.943 227.895L612.643 228.395C612.543 228.495 612.543 228.595 612.443 228.695C612.343 228.795 612.243 228.795 612.143 228.795L610.144 229.795L606.445 231.695C606.145 232.095 605.945 232.395 605.745 232.695C605.445 233.095 605.245 233.495 605.245 233.695C605.245 233.795 605.245 233.895 605.245 233.895C605.245 233.895 605.245 233.995 605.345 233.995C605.345 233.995 605.245 234.095 605.245 234.195C605.145 234.595 605.345 235.195 605.645 235.795C605.045 235.895 604.245 235.895 603.545 235.495C603.345 235.395 603.145 235.195 603.045 235.095C602.945 234.895 602.946 234.595 602.846 234.395C602.746 233.895 602.746 233.495 602.846 233.095C603.046 232.295 603.445 231.695 603.745 231.295L604.645 229.995L604.845 229.695L605.145 229.595L609.044 227.595L610.944 226.595C608.644 223.995 605.645 221.995 602.146 220.795C591.648 217.395 580.351 223.095 576.852 233.595L573.953 242.595L581.151 244.995L579.351 250.495C581.551 251.195 583.95 250.995 586.05 249.995C586.65 249.695 587.449 249.895 587.749 250.595C588.049 251.195 587.849 251.995 587.149 252.295C585.55 253.095 583.75 253.495 581.951 253.495C580.751 253.495 579.651 253.295 578.452 252.995L575.752 261.095C578.152 264.795 581.751 267.695 586.25 269.095C592.048 270.995 598.147 270.095 603.045 267.095C602.646 266.295 602.546 265.295 602.846 264.395L602.946 264.095C602.646 263.995 602.346 263.895 602.046 263.795C601.046 263.395 600.046 262.795 599.246 261.995C597.647 260.395 597.047 257.695 597.947 255.695C597.947 255.595 598.147 255.395 598.247 255.195C598.347 255.095 598.447 254.895 598.647 254.795C598.947 254.595 599.246 254.495 599.446 254.295C599.946 254.095 600.546 253.995 601.046 253.995C602.046 253.895 603.045 253.995 603.945 254.095C604.645 254.195 605.245 254.295 605.845 254.395L606.645 251.895C610.444 250.095 616.242 248.895 616.242 248.895L624.14 255.095L625.04 257.995C625.04 257.995 610.544 255.295 609.544 255.195C607.644 255.095 605.745 254.895 603.845 254.995C602.946 254.995 601.946 255.095 601.146 255.195C600.246 255.295 599.446 255.695 599.446 256.195C598.947 257.695 599.646 259.395 600.846 260.295C601.446 260.795 602.146 261.095 602.946 261.395C603.345 261.595 603.745 261.595 604.145 261.795L605.445 261.995C607.444 262.295 609.344 262.895 611.143 263.495C612.943 264.095 614.743 264.795 616.542 265.495C620.141 266.895 623.64 268.395 627.039 270.095L627.539 270.295L627.739 270.795C629.239 274.895 631.038 278.995 633.338 282.695C634.438 284.495 635.737 286.295 637.237 287.795C638.737 289.195 640.636 290.395 642.436 291.495C646.235 293.795 650.134 295.795 654.233 297.695C656.232 298.695 658.232 299.595 660.331 300.495L661.831 301.195C662.031 301.295 662.331 301.395 662.631 301.595C662.93 301.795 663.23 302.095 663.53 302.295C664.43 303.095 665.23 303.895 666.03 304.695C672.328 311.095 678.527 317.595 684.725 323.995C686.225 325.595 687.824 327.195 689.424 328.795C690.923 330.495 692.323 332.195 693.823 333.895C696.722 337.295 699.621 340.795 702.421 344.295C699.121 341.295 695.822 338.195 692.523 335.195C690.923 333.695 689.224 332.195 687.624 330.595C686.125 328.895 684.525 327.295 683.025 325.695C676.827 319.195 670.629 312.695 664.43 306.395C663.63 305.595 662.83 304.795 662.131 304.095C662.031 303.995 661.931 303.795 661.731 303.695L661.031 303.395L659.531 302.695C657.532 301.795 655.432 300.795 653.433 299.795C649.334 297.795 645.335 295.795 641.436 293.495C639.536 292.295 637.537 291.095 635.737 289.395C634.638 288.295 633.638 287.095 632.738 285.795C622.141 281.095 610.144 277.595 597.047 277.295C563.955 276.495 459.082 302.195 453.183 354.695C447.585 404.195 507.27 451.695 507.27 451.695C511.968 455.595 518.167 460.695 524.265 465.195C521.566 492.095 519.566 517.295 519.666 532.495C519.866 597.095 525.765 663.095 524.465 690.195C523.865 701.695 516.467 711.196 494.673 712.996C480.476 714.096 475.178 740.695 475.178 740.695H585.05L590.149 453.695L603.345 453.295L636.437 740.695H744.91C744.41 736.395 743.31 732.295 741.711 728.295C740.211 724.695 738.012 720.995 735.012 718.095ZM630.539 246.095C629.539 245.395 620.941 239.595 620.541 239.295C620.141 239.395 619.841 239.495 619.441 239.695L618.442 240.095L616.342 240.995C614.943 241.195 613.443 241.395 612.043 241.595L609.844 241.895L609.344 241.995H609.044C608.844 242.095 608.444 242.295 608.144 242.395C606.945 243.095 605.645 243.795 604.445 244.595C603.245 245.395 602.046 246.195 601.046 247.095C600.546 247.495 600.046 247.995 599.746 248.395C599.746 248.395 599.746 248.495 599.646 248.495L599.746 248.595L599.946 248.995C600.546 249.995 601.546 250.795 602.546 251.195C603.045 251.595 603.545 251.795 604.245 251.995C604.845 252.095 605.645 252.195 606.345 252.095C605.845 252.595 605.145 253.095 604.345 253.395C603.545 253.695 602.646 253.695 601.746 253.595C600.046 252.995 598.647 251.795 597.747 250.295L597.447 249.695L597.347 249.395L597.247 249.195V249.095V248.995C597.047 248.395 597.247 247.895 597.347 247.595C597.447 247.295 597.647 247.095 597.747 246.895C598.347 246.095 598.946 245.595 599.546 245.095C600.746 244.095 601.946 243.295 603.245 242.495C604.545 241.695 605.745 240.895 607.144 240.195C607.544 239.995 607.844 239.895 608.244 239.695C608.244 239.695 608.744 239.495 608.744 239.595H609.044L609.544 239.495L610.744 239.295L611.443 236.995C614.543 236.995 617.442 236.595 617.442 236.595L624.14 237.695L630.539 246.095C630.639 246.195 630.639 246.195 630.539 246.095ZM530.164 404.195C525.765 405.295 525.565 408.995 516.667 409.195L500.571 363.495L537.962 347.595C537.962 347.595 534.663 372.295 530.764 404.395C530.564 404.195 530.464 404.195 530.164 404.195ZM578.652 427.695C578.652 428.495 578.152 429.395 577.852 429.895C577.552 430.495 577.252 431.095 576.852 431.695C576.652 431.995 576.452 432.295 576.152 432.595C576.052 432.795 575.852 432.895 575.552 433.095C575.352 433.195 575.252 433.295 574.953 433.395C574.853 433.395 574.653 433.495 574.453 433.395C574.353 433.395 574.253 433.395 574.053 433.295C573.953 433.295 573.953 433.295 573.853 433.195C569.854 431.595 565.755 430.095 561.656 428.795C559.556 428.095 557.457 427.495 555.357 426.995C553.358 426.495 551.258 426.095 549.159 425.795L548.359 425.895C548.859 426.095 549.259 426.395 549.759 426.595C551.358 427.495 552.958 428.395 554.458 429.295C555.957 430.295 557.457 431.295 558.957 432.495C560.356 433.595 561.756 434.895 562.856 436.395C564.655 438.095 566.355 439.795 567.954 441.695C569.654 443.595 571.153 445.495 572.553 447.595C573.253 448.695 573.853 449.795 574.253 451.195C574.453 451.895 574.553 452.695 574.453 453.595C574.353 453.995 574.153 454.595 573.953 454.795C573.753 455.095 573.553 455.395 573.353 455.695C572.453 456.795 571.253 457.695 569.854 458.195C569.154 458.395 568.454 458.595 567.754 458.695C567.055 458.795 566.455 458.795 565.555 458.695H565.255L565.055 458.495C562.356 456.695 559.756 454.895 557.257 452.995C555.957 452.095 554.658 451.095 553.458 450.095L551.558 448.595C550.959 448.195 550.459 447.795 549.759 447.395C547.159 446.095 544.16 445.495 541.061 445.295C538.162 445.095 535.163 445.295 532.263 445.795L530.964 447.095C532.563 449.395 534.263 451.795 535.962 453.995C537.862 456.595 539.661 459.195 541.661 461.695C542.661 462.995 543.66 464.095 544.86 465.195C546.06 466.395 547.16 467.695 547.659 469.395C547.959 470.195 548.059 471.095 547.859 471.995C547.659 472.895 547.06 473.595 546.36 474.095C544.96 475.095 543.36 475.395 541.761 475.495C543.36 475.195 544.96 474.695 546.06 473.695C546.66 473.195 547.06 472.595 547.16 471.795C547.259 471.095 547.16 470.395 546.86 469.695C546.26 468.295 545.16 467.195 543.96 466.195C542.761 465.195 541.461 464.095 540.361 462.895C538.062 460.595 535.962 458.095 533.863 455.595C531.963 452.995 530.064 450.395 528.164 447.695L527.564 446.795L528.264 446.095L530.564 443.795L530.864 443.495L531.263 443.395C534.563 442.795 537.762 442.695 541.061 442.795C544.36 442.995 547.659 443.595 550.759 445.195C551.558 445.595 552.258 446.095 552.958 446.595L554.758 448.095C555.957 449.095 557.257 449.995 558.557 450.995C560.956 452.795 563.455 454.595 566.055 456.195C566.955 456.195 567.954 456.095 568.854 455.795C569.854 455.395 570.654 454.895 571.253 454.095C571.553 453.695 571.853 453.195 571.853 452.995C571.953 452.695 571.853 452.295 571.753 451.795C571.453 450.795 570.954 449.795 570.354 448.795C569.154 446.795 567.554 444.995 565.955 443.195C564.355 441.395 562.656 439.695 560.956 437.995L560.856 437.895L560.756 437.795C559.856 436.495 558.557 435.295 557.257 434.295C555.957 433.195 554.458 432.195 552.958 431.295C551.458 430.395 549.959 429.495 548.459 428.595C546.96 427.795 545.36 426.895 543.76 426.195L540.061 424.495L544.06 423.795L548.759 422.995H548.959H549.159C551.458 423.295 553.658 423.695 555.857 424.195C558.057 424.695 560.156 425.395 562.256 425.995C566.355 427.295 570.254 428.795 574.253 430.295C574.353 430.195 574.453 429.995 574.653 429.795C574.953 429.295 575.252 428.795 575.552 428.295C575.852 427.695 575.952 427.495 576.052 426.995C576.052 426.595 576.052 426.095 575.952 425.595C575.352 423.495 573.853 421.595 572.253 419.895C570.554 418.295 568.554 416.895 566.355 415.995C565.855 415.795 565.255 415.595 564.655 415.395L562.856 414.795L559.256 413.595C556.857 412.795 554.558 411.795 552.258 410.995C549.959 410.195 547.559 409.495 545.06 408.995C544.46 408.895 543.86 408.795 543.26 408.695C542.661 408.595 542.061 408.495 541.461 408.495C540.861 408.395 540.261 408.395 539.561 408.395C539.261 408.395 538.962 408.395 538.662 408.395C538.362 408.395 538.062 408.495 537.762 408.495C535.362 408.995 532.963 409.795 530.564 410.495C532.863 409.495 535.163 408.495 537.662 407.695C537.962 407.595 538.262 407.495 538.662 407.495C538.962 407.495 539.262 407.395 539.661 407.395C540.261 407.295 540.961 407.295 541.561 407.295C542.161 407.295 542.861 407.295 543.46 407.295C544.06 407.295 544.76 407.395 545.36 407.395C547.959 407.695 550.459 408.195 552.958 408.795C555.457 409.395 557.857 410.095 560.256 410.995C561.456 411.395 562.656 411.895 563.755 412.295L565.555 412.895C566.155 413.095 566.855 413.295 567.454 413.595C569.954 414.595 572.153 416.195 574.053 417.995C575.952 419.895 577.652 421.995 578.452 424.795C578.652 426.095 578.752 426.895 578.652 427.695Z" fill="#1E2B3C"/>
<path d="M742.411 728.403C741.011 724.303 738.911 720.403 735.912 717.203C734.413 715.603 732.613 714.203 730.613 713.203C728.614 712.203 726.514 711.503 724.215 711.103C721.916 710.803 719.916 710.703 717.817 710.403C715.717 710.103 713.618 709.803 711.718 709.203L710.219 708.803L708.819 708.303C708.319 708.103 707.819 708.003 707.419 707.703C706.919 707.503 706.52 707.303 706.02 707.103C704.22 706.203 702.72 704.903 701.621 703.303C700.421 701.703 699.621 699.903 699.021 697.903C698.721 696.903 698.422 695.903 698.222 694.903C697.922 693.903 697.922 692.903 697.722 691.903C696.722 683.503 696.222 674.903 695.622 666.403C693.323 632.203 691.323 598.003 688.524 563.803L687.424 551.003C687.024 546.703 686.625 542.503 686.125 538.203L685.325 531.803L684.425 525.403C683.825 521.203 683.325 516.903 682.626 512.703C680.226 495.703 677.427 478.803 674.528 461.903C671.628 445.003 668.429 428.203 665.13 411.303C663.33 402.903 661.431 394.603 659.531 386.203C657.632 377.803 655.632 369.503 653.633 361.203L658.232 386.503L662.731 411.803C666.03 428.603 669.129 445.403 672.128 462.303C675.027 479.203 677.827 496.103 680.226 513.003C680.826 517.203 681.426 521.503 682.026 525.703L682.925 532.103L683.625 538.503C684.125 542.703 684.525 547.003 684.925 551.303L686.025 564.103C688.824 598.203 690.823 632.403 693.123 666.603C693.723 675.203 694.223 683.703 695.222 692.303C695.422 693.403 695.522 694.503 695.822 695.603C696.122 696.603 696.322 697.703 696.722 698.803C697.422 700.903 698.322 703.103 699.721 704.903C701.121 706.803 702.92 708.303 704.92 709.403C705.42 709.703 705.92 709.903 706.42 710.203C706.719 710.303 706.919 710.403 707.219 710.603L708.019 710.903C708.519 711.103 709.119 711.303 709.619 711.403L711.218 711.803C713.418 712.303 715.517 712.603 717.717 712.803C719.816 713.003 722.116 713.003 724.115 713.203C728.214 713.603 732.113 715.403 735.112 718.303C738.112 721.203 740.311 724.903 741.911 728.803C743.51 732.703 744.61 736.903 745.11 741.203C745.11 740.803 745.01 740.403 745.01 740.003C744.51 736.003 743.71 732.103 742.411 728.403Z" fill="#EDCFC5"/>
<path d="M261.24 253.798C262.639 253.798 264.039 253.698 265.339 253.598C265.039 252.098 264.839 250.598 264.839 248.998V245.198C264.539 245.498 264.239 245.798 263.739 245.998C261.74 246.698 259.04 244.498 257.941 241.098C256.841 237.698 257.441 234.398 259.54 233.698C260.74 233.298 262.04 233.798 263.239 234.998C263.839 235.598 264.939 235.198 265.039 234.398C266.538 223.798 275.636 215.598 286.733 215.598C292.332 215.598 297.431 217.698 301.33 221.198C301.929 218.498 302.229 215.698 302.229 212.898C302.229 190.298 283.834 171.898 261.24 171.898C238.645 171.898 220.25 190.298 220.25 212.898C220.25 235.498 238.645 253.798 261.24 253.798Z" fill="#F45F63"/>
<path d="M876.375 219.303C876.375 220.803 876.475 222.303 876.675 223.803C879.974 221.803 883.873 220.603 888.072 220.603C899.069 220.603 908.267 228.803 909.767 239.403C909.867 240.303 910.966 240.703 911.566 240.003C912.766 238.803 914.066 238.303 915.265 238.703C917.265 239.403 918.065 242.703 916.865 246.103C915.665 249.503 913.066 251.703 911.066 251.003C910.666 250.903 910.266 250.603 909.967 250.203V254.003C909.967 255.903 909.767 257.703 909.267 259.503C911.866 260.003 914.665 260.303 917.365 260.303C921.064 260.303 924.663 259.803 928.062 258.903C932.461 264.003 938.959 267.203 946.157 267.203C953.856 267.203 960.654 263.603 965.053 257.903C967.052 259.403 969.452 260.203 972.151 260.203C978.749 260.203 984.148 254.803 984.148 248.203C984.148 241.603 978.749 236.203 972.151 236.203C971.151 236.203 970.151 236.303 969.152 236.603C967.452 230.603 963.453 225.603 958.154 222.503C958.254 221.403 958.254 220.303 958.254 219.203C958.254 196.603 939.859 178.203 917.265 178.203C894.77 178.303 876.375 196.603 876.375 219.303Z" fill="#1E98F5"/>
<path d="M587.051 252.402C587.651 252.102 587.951 251.302 587.651 250.702C587.351 250.102 586.551 249.802 585.951 250.102C583.852 251.202 581.452 251.302 579.253 250.602L578.453 253.002C579.553 253.402 580.753 253.502 581.952 253.502C583.752 253.602 585.451 253.202 587.051 252.402Z" fill="#E5AA20"/>
<path d="M575.353 431.198C575.153 430.998 575.153 430.998 575.053 430.998C574.953 430.998 574.953 430.998 574.953 430.898L575.353 431.198Z" fill="#1E2B3C"/>
<path d="M573.957 418.502C572.058 416.702 569.758 415.102 567.359 414.102C566.759 413.802 566.059 413.602 565.459 413.402L563.66 412.802C562.46 412.402 561.26 412.002 560.161 411.502C557.761 410.602 555.362 409.902 552.862 409.302C550.363 408.702 547.864 408.202 545.264 407.902C544.664 407.802 543.965 407.802 543.365 407.802C542.765 407.802 542.065 407.702 541.465 407.802C540.865 407.802 540.166 407.802 539.566 407.902C539.266 407.902 538.966 407.902 538.566 408.002C538.166 408.102 537.866 408.102 537.566 408.202C535.167 409.002 532.867 410.002 530.468 411.002C532.867 410.202 535.267 409.502 537.666 409.002C537.966 408.902 538.266 408.902 538.566 408.902C538.866 408.902 539.166 408.902 539.466 408.902C540.066 408.902 540.665 408.902 541.365 409.002C541.965 409.002 542.565 409.102 543.165 409.202C543.765 409.302 544.365 409.402 544.964 409.502C547.364 410.002 549.763 410.702 552.163 411.502C554.562 412.302 556.761 413.302 559.161 414.102L562.76 415.302L564.559 415.902C565.159 416.102 565.659 416.302 566.259 416.502C568.458 417.402 570.458 418.802 572.158 420.402C573.857 422.002 575.357 424.002 575.857 426.102C575.957 426.602 576.057 427.102 575.957 427.502C575.957 428.002 575.757 428.202 575.457 428.802C575.157 429.302 574.857 429.902 574.557 430.302C574.457 430.502 574.357 430.602 574.157 430.802C570.158 429.202 566.259 427.702 562.16 426.502C560.061 425.802 557.961 425.202 555.762 424.702C553.562 424.202 551.363 423.702 549.063 423.502H548.863H548.663L543.965 424.302L539.966 425.002L543.665 426.702C545.264 427.402 546.864 428.202 548.364 429.102C549.863 429.902 551.463 430.802 552.862 431.802C554.362 432.702 555.762 433.702 557.161 434.802C558.461 435.902 559.761 437.002 560.66 438.302L560.76 438.402L560.86 438.502C562.56 440.102 564.26 441.902 565.859 443.702C567.459 445.502 568.958 447.402 570.258 449.302C570.858 450.302 571.458 451.302 571.658 452.302C571.758 452.802 571.858 453.202 571.758 453.502C571.758 453.702 571.458 454.202 571.158 454.602C570.558 455.402 569.758 456.002 568.758 456.302C567.959 456.602 566.859 456.802 565.959 456.702C563.46 455.002 560.96 453.302 558.461 451.502C557.161 450.602 555.962 449.602 554.662 448.602L552.862 447.102C552.163 446.602 551.463 446.102 550.663 445.702C547.564 444.102 544.265 443.502 540.965 443.302C537.666 443.102 534.467 443.302 531.168 443.902L530.768 444.002L530.468 444.302L528.169 446.602L527.469 447.302L528.069 448.202C529.868 450.902 531.768 453.502 533.767 456.102C535.767 458.602 537.966 461.102 540.266 463.402C541.365 464.602 542.665 465.702 543.865 466.702C545.064 467.702 546.164 468.902 546.764 470.202C547.064 470.902 547.164 471.602 547.064 472.302C546.964 473.002 546.564 473.702 545.964 474.202C544.764 475.202 543.165 475.702 541.665 476.002C543.265 475.802 544.864 475.502 546.264 474.602C546.964 474.102 547.564 473.402 547.764 472.502C547.964 471.602 547.864 470.702 547.564 469.902C546.964 468.302 545.864 466.902 544.764 465.702C543.565 464.602 542.565 463.402 541.565 462.202C539.566 459.802 537.666 457.102 535.867 454.502C534.167 452.302 532.468 449.902 530.868 447.602L532.168 446.302C535.067 445.802 538.066 445.702 540.965 445.802C543.965 446.002 547.064 446.502 549.663 447.902C550.263 448.202 550.863 448.602 551.463 449.102L553.362 450.602C554.662 451.602 555.862 452.602 557.161 453.502C559.761 455.402 562.36 457.202 564.959 459.002L565.159 459.202H565.459C566.259 459.302 566.859 459.202 567.659 459.202C568.358 459.102 569.058 458.902 569.758 458.702C571.058 458.202 572.357 457.302 573.257 456.202C573.457 455.902 573.657 455.602 573.857 455.302C574.057 455.102 574.257 454.502 574.357 454.102C574.557 453.202 574.357 452.402 574.157 451.702C573.757 450.302 573.057 449.202 572.457 448.102C571.058 445.902 569.458 444.002 567.859 442.202C566.259 440.402 564.559 438.602 562.76 436.902C561.66 435.402 560.261 434.102 558.861 433.002C557.461 431.802 555.962 430.802 554.362 429.802C552.862 428.802 551.263 427.902 549.663 427.102C549.163 426.902 548.763 426.602 548.264 426.402L549.063 426.302C551.063 426.502 553.162 427.002 555.262 427.502C557.361 428.002 559.461 428.602 561.56 429.302C565.659 430.602 569.758 432.102 573.757 433.702C573.857 433.702 573.857 433.802 573.957 433.802C574.057 433.902 574.157 433.902 574.357 433.902C574.557 433.902 574.757 433.902 574.857 433.902C575.157 433.802 575.257 433.702 575.457 433.602C575.757 433.402 575.857 433.302 576.057 433.102C576.356 432.802 576.556 432.502 576.756 432.202C577.156 431.602 577.456 431.002 577.756 430.402C578.056 429.902 578.456 429.002 578.556 428.202C578.656 427.402 578.556 426.602 578.356 425.902C577.656 422.502 575.857 420.402 573.957 418.502ZM575.357 431.202L574.957 431.002C574.957 431.002 575.057 431.002 575.057 431.102C575.157 431.002 575.157 431.002 575.357 431.202Z" fill="#EDCFC5"/>
<path d="M624.045 237.701L617.347 236.602C617.347 236.602 614.447 237.001 611.348 237.001L610.648 239.302L611.648 239.102L616.047 238.402C616.847 238.502 617.547 238.601 618.347 238.701C619.146 238.801 619.846 238.901 620.646 239.201C621.046 239.401 629.744 245.301 630.643 246.001L624.045 237.701Z" fill="#E5AA20"/>
<path d="M615.643 268.003C613.844 267.303 612.144 266.603 610.344 266.003C608.545 265.403 606.745 264.803 605.046 264.603C604.646 264.503 604.046 264.403 603.546 264.403C603.346 264.303 603.146 264.303 602.946 264.203L602.846 264.503C602.546 265.403 602.646 266.403 603.046 267.203C603.346 267.903 603.946 268.503 604.746 268.903C605.046 269.403 605.546 269.803 606.145 270.103L617.143 275.603C619.142 276.603 621.642 275.603 622.341 273.403L623.041 271.103C620.542 270.003 618.142 268.903 615.643 268.003Z" fill="#E5AA20"/>
<path d="M630.441 228.204C631.141 228.804 632.74 230.105 634.64 231.805C634.54 230.805 634.14 229.805 633.24 229.104L632.34 228.404C632.14 228.204 632.04 228.004 631.84 227.904L621.843 220.004C619.844 218.403 616.845 219.304 616.045 221.804L614.445 226.904C618.044 226.804 628.641 226.704 630.441 228.204Z" fill="#E5AA20"/>
<path d="M609.652 255.402C610.652 255.402 625.148 258.201 625.148 258.201L624.249 255.302L616.351 249.102C616.351 249.102 610.552 250.302 606.753 252.102L605.953 254.602C607.153 254.802 608.453 255.102 609.652 255.402Z" fill="#E5AA20"/>
<path d="M641.138 293.799C645.037 296.199 649.036 298.199 653.135 300.099C655.135 301.099 657.234 301.999 659.234 302.999L660.733 303.699L661.433 303.999C661.633 304.099 661.733 304.299 661.833 304.399C662.533 305.099 663.433 305.899 664.133 306.699C670.431 312.999 676.629 319.499 682.728 325.999C684.227 327.599 685.827 329.199 687.327 330.899C688.926 332.499 690.626 333.999 692.225 335.499C695.525 338.599 698.824 341.599 702.123 344.599C699.324 341.099 696.424 337.699 693.525 334.199C692.025 332.499 690.626 330.699 689.126 329.099C687.527 327.499 686.027 325.899 684.427 324.299C678.229 317.799 672.03 311.399 665.732 304.999C664.932 304.199 664.132 303.399 663.233 302.599C662.933 302.399 662.633 302.099 662.333 301.899C662.033 301.799 661.733 301.599 661.533 301.499L660.033 300.799C658.034 299.899 655.935 298.899 653.935 297.999C649.936 296.099 645.937 294.099 642.138 291.799C640.239 290.699 638.439 289.499 636.939 288.099C635.44 286.699 634.24 284.899 633.04 282.999C630.841 279.299 628.941 275.199 627.442 271.099L627.242 270.599L626.742 270.399C623.243 268.799 619.744 267.299 616.245 265.799C614.445 265.099 612.645 264.399 610.846 263.799C609.046 263.199 607.147 262.599 605.147 262.299L603.848 262.099C603.448 261.999 603.048 261.899 602.648 261.699C601.848 261.399 601.148 261.099 600.548 260.599C599.349 259.699 598.749 257.999 599.149 256.499C599.149 256.099 600.049 255.699 600.848 255.499C601.748 255.299 602.648 255.299 603.548 255.299C605.447 255.299 607.347 255.399 609.246 255.499C608.047 255.199 606.747 254.999 605.547 254.699C604.947 254.599 604.248 254.499 603.648 254.399C602.648 254.299 601.748 254.199 600.748 254.299C600.249 254.299 599.749 254.399 599.149 254.599C598.849 254.699 598.549 254.799 598.349 255.099C598.249 255.199 598.049 255.299 597.949 255.499C597.849 255.699 597.749 255.899 597.649 255.999C596.649 258.099 597.249 260.699 598.949 262.299C599.749 263.099 600.748 263.699 601.748 264.099C602.048 264.199 602.348 264.299 602.648 264.399C602.848 264.499 603.048 264.499 603.248 264.599C603.748 264.699 604.347 264.799 604.747 264.799C606.447 265.099 608.246 265.599 610.046 266.199C611.846 266.799 613.545 267.499 615.345 268.199C617.844 269.199 620.243 270.199 622.743 271.299C623.643 271.699 624.442 272.099 625.342 272.499C626.842 276.599 628.641 280.599 630.941 284.399C631.341 285.099 631.841 285.699 632.24 286.399C633.14 287.699 634.04 288.899 635.24 289.999C637.239 291.399 639.139 292.599 641.138 293.799Z" fill="#EDCFC5"/>
<path d="M616.043 238.5L611.644 239.2L610.645 239.4L609.445 239.6L608.945 239.7H608.645L608.145 239.8C607.645 240 607.345 240.2 607.046 240.3C605.746 241 604.446 241.8 603.147 242.6C601.847 243.4 600.647 244.3 599.447 245.2C598.848 245.7 598.248 246.2 597.648 247C597.548 247.2 597.348 247.4 597.248 247.7C597.148 248 596.948 248.4 597.148 249.1C597.148 249.2 597.148 249.2 597.148 249.2V249.3L597.248 249.5L597.348 249.8L597.648 250.4C598.548 251.9 599.947 253.1 601.647 253.7C602.547 253.8 603.446 253.7 604.246 253.5C605.046 253.2 605.746 252.7 606.246 252.2C605.446 252.3 604.746 252.3 604.146 252.1C603.446 251.9 602.947 251.7 602.447 251.3C601.347 250.9 600.447 250.1 599.847 249.1L599.647 248.7L599.547 248.6C599.547 248.6 599.547 248.5 599.647 248.5C599.947 248.1 600.447 247.6 600.947 247.2C602.047 246.3 603.147 245.5 604.346 244.7C605.546 243.9 606.746 243.2 608.045 242.5C608.345 242.3 608.645 242.2 608.945 242.1H609.245L609.745 242L611.944 241.7C613.344 241.5 614.844 241.2 616.243 241.1L618.343 240.2L619.343 239.8C619.642 239.7 620.042 239.5 620.442 239.4C619.742 239.1 618.943 239 618.143 238.9C617.543 238.7 616.743 238.6 616.043 238.5Z" fill="#EDCFC5"/>
<path d="M604.953 229.897L604.653 229.997L604.453 230.297L603.553 231.597C603.253 232.097 602.853 232.597 602.653 233.397C602.553 233.797 602.553 234.297 602.653 234.697C602.753 234.897 602.753 235.197 602.853 235.397C602.953 235.597 603.253 235.697 603.353 235.797C604.053 236.197 604.753 236.197 605.452 236.097C605.152 235.497 604.952 234.897 605.052 234.497C605.052 234.397 605.152 234.297 605.152 234.297C605.152 234.297 605.052 234.297 605.052 234.197C605.052 234.097 605.052 234.097 605.052 233.997C605.152 233.797 605.352 233.397 605.552 232.997C605.752 232.697 606.052 232.397 606.252 231.997L609.951 230.097L611.951 229.097C612.051 229.097 612.151 229.097 612.251 228.997C612.351 228.897 612.351 228.797 612.451 228.697L612.751 228.197C612.95 227.797 613.15 227.397 613.35 226.997C612.851 226.897 612.451 226.797 612.051 226.797H611.451C611.351 226.797 611.251 226.797 611.151 226.797C611.051 226.797 610.951 226.897 610.951 226.897H610.851L608.952 227.897L604.953 229.897Z" fill="#EDCFC5"/>
<path d="M787.001 478.602C787.801 478.602 788.601 478.401 789.401 478.201C792.6 477.501 795.699 476.801 798.899 476.001C795.599 475.901 792.4 475.901 789.201 476.001C788.401 476.001 787.601 476.001 786.802 476.201L784.402 476.501L779.703 477.001C778.204 477.001 776.604 476.902 775.304 476.602C774.605 476.502 774.005 476.201 773.805 476.001C773.705 475.901 773.705 475.902 773.705 475.802C773.705 475.702 773.605 475.702 773.605 475.602C773.605 475.402 773.605 475.102 773.705 474.902C773.805 474.302 774.105 473.601 774.405 473.001C774.605 472.501 775.005 472.202 775.604 471.802C776.704 471.002 778.204 470.501 779.603 470.001C782.503 469.001 785.602 468.402 788.701 467.802C791.8 467.302 794.9 466.801 798.099 466.501H798.199H798.299C799.598 466.101 800.698 465.601 801.798 465.001C802.898 464.401 803.897 463.801 804.897 463.201C806.897 461.901 808.796 460.401 810.596 459.001L811.995 458.001C812.495 457.701 812.995 457.401 813.395 457.001L815.994 454.701L821.293 450.102C819.193 451.102 817.094 452.102 814.994 453.302L811.895 455.001C811.395 455.301 810.895 455.701 810.496 456.001L809.096 457.102C807.196 458.502 805.397 460.001 803.497 461.201C802.598 461.801 801.598 462.402 800.598 462.902C799.698 463.402 798.599 463.901 797.699 464.201C794.5 464.501 791.4 464.901 788.301 465.501C785.102 466.101 782.003 466.702 778.804 467.802C777.204 468.302 775.704 468.902 774.205 469.902C773.805 470.102 773.505 470.502 773.105 470.802C772.905 471.002 772.705 471.202 772.605 471.402C772.505 471.602 772.305 471.902 772.205 472.102C771.905 472.802 771.505 473.602 771.305 474.402C771.305 474.502 771.305 474.502 771.305 474.602C771.206 475.102 771.105 475.601 771.205 476.201C771.205 476.501 771.405 476.802 771.505 477.102C771.705 477.402 771.805 477.702 772.105 477.902C773.005 478.802 774.005 479.102 774.905 479.302C776.604 479.602 778.304 479.701 779.903 479.701H780.003H780.103L783.002 479.402L784.902 479.201L787.001 478.602Z" fill="#EDCFC5"/>
<path d="M412.502 713.897C385.409 703.797 375.511 685.897 376.911 673.697C383.109 616.197 388.108 587.597 372.012 536.697C355.516 484.397 333.922 454.697 322.225 430.897C321.525 429.397 320.825 427.897 320.125 426.397C319.325 426.797 318.526 427.197 317.726 427.597C316.526 428.197 315.326 428.797 314.027 429.297L310.228 430.797L306.429 432.097C305.129 432.597 303.829 432.797 302.53 433.197C297.231 434.597 291.832 435.297 286.334 435.097C283.634 434.997 280.835 434.597 278.136 433.997C276.836 433.597 275.436 433.297 274.137 432.797L270.338 431.297L268.438 430.597C267.838 430.297 267.238 429.997 266.639 429.697L262.94 427.897C261.74 427.297 260.64 426.497 259.44 425.797C258.241 425.097 257.141 424.397 256.041 423.597L252.742 421.197C251.742 420.297 250.743 419.397 249.643 418.497C249.143 417.997 248.643 417.597 248.143 417.097L246.744 415.597L245.344 414.097L244.644 413.397L244.044 412.597L241.545 409.397C240.745 408.297 240.045 407.097 239.245 405.997C238.446 404.897 237.846 403.697 237.146 402.497L236.146 400.697C235.846 400.097 235.546 399.497 235.246 398.897C232.847 393.997 231.148 388.897 229.848 383.597C227.948 375.997 227.149 368.097 227.049 360.297C226.949 361.697 226.849 362.997 226.749 364.097C226.149 371.197 224.649 386.697 222.85 404.897L213.952 481.997C213.852 482.897 213.652 483.697 213.552 484.497H213.652L183.859 741.397H293.732C292.932 738.097 291.832 734.897 290.533 731.797C289.233 728.697 287.733 725.597 285.834 722.897C283.934 720.197 281.635 717.597 278.836 716.197C277.436 715.497 275.936 714.997 274.437 714.897C272.737 714.697 271.037 714.697 269.338 714.397C268.438 714.297 267.638 714.097 266.739 713.997C265.839 713.797 265.039 713.597 264.239 713.397C263.339 713.197 262.54 712.997 261.74 712.697C260.94 712.397 260.04 712.197 259.24 711.897C255.941 710.697 252.742 708.897 250.143 706.497C247.543 704.097 245.444 700.897 244.444 697.397C243.944 695.697 243.544 693.897 243.444 692.097C243.444 691.697 243.344 691.197 243.344 690.797V689.497V688.197C243.344 687.797 243.444 687.297 243.444 686.897C244.044 679.997 245.544 673.297 247.044 666.697C248.543 660.097 250.243 653.397 251.942 646.897C255.341 633.697 258.941 620.597 262.54 607.497C269.738 581.297 276.836 555.097 283.134 528.697C286.234 515.497 289.133 502.197 291.432 488.897C292.832 482.297 294.032 475.597 295.031 468.897C295.431 465.497 296.031 462.197 296.231 458.797C296.431 457.097 296.631 455.397 296.731 453.697L297.031 448.597C297.331 462.197 295.831 475.797 293.832 489.297C291.432 502.697 288.633 515.997 285.434 529.297C285.134 530.597 284.834 531.897 284.534 533.197C302.929 563.197 316.426 582.897 316.426 582.897L322.325 732.897L322.924 740.997L426.998 741.597C426.998 741.497 431.197 720.897 412.502 713.897Z" fill="#1E2B3C"/>
<path d="M265.131 234.402C265.031 235.302 263.931 235.701 263.331 235.001C262.131 233.801 260.832 233.301 259.632 233.701C257.633 234.401 256.833 237.702 258.032 241.102C259.232 244.502 261.831 246.701 263.831 246.001C264.231 245.901 264.631 245.601 264.931 245.201V249.001C264.931 250.601 265.131 252.102 265.431 253.602C267.53 263.502 276.328 270.902 286.825 270.902C291.924 270.902 296.723 269.102 300.422 266.102V256.701C297.123 256.701 294.123 255.402 291.724 253.102C291.224 252.602 291.224 251.802 291.724 251.302C292.224 250.802 293.024 250.802 293.524 251.302C295.423 253.102 297.822 254.101 300.422 254.201V247.802H308.72V237.501C308.72 231.001 305.92 225.201 301.422 221.201C297.523 217.701 292.424 215.602 286.825 215.602C275.728 215.602 266.63 223.702 265.131 234.402Z" fill="#1E2B3C"/>
<path d="M291.726 251.297C291.227 251.797 291.227 252.596 291.726 253.096C294.026 255.396 297.125 256.695 300.425 256.695V254.196C297.825 254.196 295.426 253.096 293.526 251.297C293.026 250.797 292.226 250.797 291.726 251.297Z" fill="#E5AA20"/>
<path d="M293.831 489.302C295.731 475.802 297.33 462.202 297.03 448.602L296.73 453.701C296.63 455.401 296.43 457.102 296.23 458.802C295.931 462.202 295.431 465.502 295.031 468.902C293.931 475.602 292.831 482.302 291.432 488.902C289.032 502.202 286.233 515.501 283.134 528.701C276.835 555.101 269.737 581.302 262.539 607.502C258.94 620.602 255.341 633.702 251.942 646.902C250.242 653.502 248.542 660.101 247.043 666.701C245.543 673.401 244.144 680.002 243.444 686.902C243.444 687.302 243.344 687.801 243.344 688.201V689.502V690.802C243.344 691.202 243.444 691.701 243.444 692.101C243.544 693.901 243.944 695.602 244.443 697.402C245.543 700.802 247.543 704.002 250.142 706.502C252.741 709.002 255.941 710.702 259.24 711.902C260.04 712.202 260.939 712.501 261.739 712.701C262.539 713.001 263.439 713.202 264.239 713.402C265.038 713.602 265.938 713.802 266.738 714.002C267.638 714.102 268.437 714.302 269.337 714.402C271.037 714.702 272.836 714.702 274.436 714.902C275.936 715.002 277.435 715.501 278.835 716.201C281.634 717.701 283.934 720.202 285.833 722.902C287.733 725.702 289.232 728.702 290.532 731.802C291.832 734.902 292.931 738.102 293.731 741.402C292.431 734.702 290.432 728.101 286.933 722.101C285.133 719.201 282.934 716.302 279.835 714.402C278.335 713.502 276.535 712.801 274.636 712.601C272.936 712.301 271.337 712.202 269.637 711.902C266.338 711.402 263.139 710.702 260.04 709.502C256.94 708.402 254.041 706.801 251.742 704.601C249.442 702.401 247.643 699.701 246.743 696.601C246.343 695.101 245.943 693.502 245.843 691.902C245.843 691.502 245.743 691.101 245.743 690.701V689.502V688.302C245.743 687.902 245.843 687.501 245.843 687.101C246.443 680.501 247.943 673.801 249.342 667.201C250.842 660.601 252.441 654.002 254.241 647.402C257.64 634.302 261.239 621.201 264.838 608.101C271.637 583.201 278.435 558.202 284.533 533.102C284.833 531.802 285.133 530.501 285.433 529.201C288.532 516.001 291.432 502.702 293.831 489.302Z" fill="#EDCFC5"/>
<path d="M1011.05 737.594L1004.45 685.594L1001.15 659.594C1000.05 650.894 998.95 642.294 997.95 633.594L986.153 529.395L974.356 425.195L973.456 417.095C974.256 416.095 974.956 415.095 975.656 413.995C1007.05 366.695 957.96 307.595 941.764 290.095C941.764 289.595 941.764 289.295 941.764 289.295L941.164 289.495C938.465 286.595 936.865 285.095 936.865 285.095L936.565 285.395C935.466 284.495 934.266 283.795 933.066 283.195C912.072 272.695 893.276 279.395 882.879 294.695C882.379 295.395 881.879 296.195 881.479 296.995C876.48 303.795 874.881 313.195 874.781 323.695C873.081 342.195 875.081 360.795 875.081 360.795L878.88 393.595C885.178 392.395 891.377 391.095 897.675 389.895L934.666 382.595L916.17 356.595L911.272 349.695L908.772 346.295C908.372 345.695 907.973 345.195 907.573 344.595C907.173 343.995 906.773 343.395 906.473 342.795C903.474 337.995 900.474 333.195 897.575 328.295C901.174 332.595 904.773 336.995 908.372 341.395C908.772 341.995 909.272 342.495 909.672 343.095C910.072 343.695 910.472 344.295 910.872 344.795L913.371 348.195L918.27 355.095L937.865 382.695L938.965 384.295L937.065 384.695L898.175 392.395C891.677 393.695 885.178 394.895 878.78 396.295C872.282 397.295 865.683 398.095 859.085 398.895C859.085 398.895 847.988 391.695 843.889 390.495C839.69 389.295 825.993 384.095 820.694 383.695C815.396 383.295 806.198 387.595 803.899 388.895C803.299 389.295 802.999 389.695 802.899 390.095C802.799 391.295 804.598 392.695 807.198 393.395C808.298 393.695 810.197 393.995 812.397 394.295C817.395 394.995 823.794 395.495 823.794 395.495C823.794 395.495 820.894 395.895 817.095 396.395C815.796 396.595 814.396 396.695 812.996 396.895C808.398 397.395 803.599 397.895 801.599 397.895C801.199 397.895 800.699 397.895 800.3 397.795C796.401 397.195 793.201 394.195 789.602 393.295C785.603 392.295 782.104 395.695 782.104 395.695C782.404 398.995 803.899 411.295 803.899 411.295L808.897 418.895L823.994 428.295C819.095 427.095 812.297 425.495 808.198 425.095C801.099 424.495 789.902 425.595 785.303 427.295C780.705 428.995 776.705 430.095 776.705 433.295C776.606 442.095 798 433.795 799.3 443.595C800.6 453.395 782.504 457.895 776.106 463.395C770.707 467.995 769.807 472.095 771.307 473.895C771.507 472.995 771.907 472.295 772.207 471.595C772.307 471.395 772.507 471.095 772.607 470.895C772.806 470.695 772.906 470.495 773.106 470.295C773.506 469.995 773.806 469.595 774.206 469.395C775.706 468.395 777.305 467.795 778.805 467.295C781.904 466.295 785.103 465.595 788.303 464.995C791.402 464.495 794.501 463.995 797.7 463.695C798.6 463.395 799.6 462.895 800.6 462.395C801.599 461.895 802.599 461.295 803.499 460.695C805.398 459.495 807.198 457.995 809.097 456.595L810.497 455.495C810.997 455.095 811.397 454.795 811.897 454.495L814.996 452.795C817.095 451.695 819.195 450.595 821.294 449.595L815.996 454.195L813.396 456.495C812.996 456.895 812.496 457.195 811.997 457.495L810.597 458.495C808.797 459.895 806.898 461.395 804.898 462.695C803.899 463.395 802.899 463.995 801.799 464.495C800.699 465.095 799.7 465.595 798.3 465.995H798.2H798.1C795.001 466.295 791.802 466.695 788.702 467.295C785.603 467.795 782.504 468.495 779.605 469.495C778.205 469.995 776.706 470.595 775.606 471.295C775.006 471.695 774.606 472.095 774.406 472.495C774.106 473.195 773.806 473.795 773.706 474.395C773.606 474.695 773.606 474.995 773.606 475.095C773.606 475.195 773.706 475.195 773.706 475.295C773.806 475.295 773.806 475.395 773.806 475.495C774.006 475.695 774.606 475.995 775.306 476.095C776.706 476.395 778.205 476.395 779.705 476.495L784.404 475.995L786.803 475.695C787.603 475.495 788.403 475.495 789.202 475.495C792.402 475.495 795.701 475.495 798.9 475.495C795.701 476.295 792.601 476.995 789.402 477.695C788.603 477.895 787.803 478.095 787.003 478.095L784.604 478.395L782.704 478.595C781.504 479.495 780.305 480.295 779.405 480.995C774.506 484.095 769.207 484.295 770.107 489.395C770.907 494.495 782.904 490.195 787.603 488.095C791.702 486.195 801.499 477.095 803.899 475.095C803.999 475.095 804.099 475.095 804.199 474.995C806.398 474.595 812.696 474.995 816.795 472.495C820.894 469.995 844.888 457.595 844.888 457.595L844.688 457.495L845.688 457.095C852.486 454.695 861.784 451.295 871.682 447.095C858.785 468.095 835.791 489.795 821.194 535.795C805.098 586.695 810.197 615.295 816.296 672.795C817.595 685.095 807.798 702.895 780.704 712.995C762.009 719.995 766.208 740.594 766.208 740.594L870.282 739.995L870.882 731.895C870.882 719.695 870.982 707.595 871.082 695.395L872.581 657.895L875.481 582.895V582.495L875.681 582.195C882.779 571.695 889.777 560.995 896.575 550.195C903.374 539.395 910.072 528.595 916.57 517.695C919.87 512.195 923.069 506.795 926.268 501.295C927.868 498.495 929.467 495.795 931.067 492.995C932.566 490.195 934.266 487.495 935.965 484.795C939.265 479.295 942.564 473.895 945.063 468.095C947.563 462.295 949.362 456.195 950.362 449.895C949.662 456.195 948.362 462.495 946.063 468.595C944.963 471.595 943.664 474.595 942.264 477.395C940.864 480.295 939.365 483.095 937.865 485.895C934.966 491.595 931.667 496.995 928.467 502.595C925.268 508.095 922.069 513.595 918.77 519.095C916.57 522.695 914.371 526.295 912.171 529.995C928.067 596.495 952.261 671.395 951.362 689.795C950.762 701.295 943.364 710.794 921.569 712.594C907.373 713.694 902.074 740.295 902.074 740.295H1011.95L1008.95 714.695L1011.05 737.594ZM950.362 434.695L946.563 435.895C936.465 438.595 925.968 439.395 915.571 439.295C910.372 439.295 905.173 438.995 900.075 438.495C894.876 437.995 889.777 437.395 884.678 436.595C874.481 434.995 864.483 432.895 854.486 430.095L847.488 430.395C846.288 430.495 845.088 430.495 843.889 430.495L840.29 430.395C835.491 430.295 830.792 430.195 825.993 429.995C830.692 429.395 835.491 428.995 840.19 428.495L843.789 428.095C844.988 427.995 846.188 427.895 847.388 427.895L854.486 427.595H854.686L854.886 427.695C864.683 430.495 874.781 432.595 884.878 434.195C889.977 434.995 895.076 435.595 900.174 436.095C905.273 436.595 910.372 436.895 915.471 436.895C925.668 436.995 935.966 436.195 945.763 433.595L949.362 432.495C950.562 432.095 951.762 431.595 952.961 431.195C954.161 430.795 955.261 430.195 956.36 429.695C956.96 429.395 957.56 429.195 958.16 428.995L959.86 428.195C964.358 425.995 968.557 422.895 972.156 419.195C969.257 423.495 965.358 427.095 960.959 429.995L959.36 431.095C958.76 431.395 958.26 431.795 957.66 431.995C956.46 432.595 955.261 433.095 954.061 433.595C952.761 433.795 951.562 434.295 950.362 434.695Z" fill="#1E2B3C"/>
<path d="M909.976 250.201C910.276 250.501 910.576 250.801 911.076 251.001C913.076 251.701 915.775 249.502 916.875 246.102C917.975 242.702 917.375 239.401 915.275 238.701C914.076 238.301 912.776 238.801 911.576 240.001C910.976 240.601 909.877 240.202 909.777 239.402C908.277 228.802 899.179 220.602 888.082 220.602C883.883 220.602 879.984 221.802 876.685 223.802C870.386 227.602 866.188 234.601 866.188 242.501V252.802H874.485V259.201H874.585C877.285 259.201 879.784 258.202 881.684 256.302C882.183 255.802 882.983 255.802 883.483 256.302C883.983 256.802 883.983 257.602 883.483 258.102C881.084 260.402 877.985 261.701 874.685 261.701C874.685 261.701 874.685 261.701 874.585 261.701H874.485V271.201C878.184 274.201 882.983 276.001 888.082 276.001C898.279 276.001 906.877 269.002 909.277 259.602C909.777 257.802 909.976 256.002 909.976 254.102V250.201Z" fill="#1E2B3C"/>
<path d="M874.682 261.603C877.982 261.603 881.081 260.303 883.48 258.003C883.98 257.503 883.98 256.703 883.48 256.203C882.98 255.703 882.181 255.703 881.681 256.203C879.781 258.103 877.282 259.103 874.583 259.103C874.483 259.103 874.483 259.103 874.483 259.103C873.883 259.203 873.383 259.703 873.383 260.303C873.383 260.903 873.883 261.503 874.483 261.503C874.483 261.603 874.582 261.603 874.682 261.603C874.582 261.603 874.582 261.603 874.682 261.603Z" fill="#E5AA20"/>
<path d="M928.265 502.997C931.464 497.497 934.764 491.997 937.663 486.297C939.162 483.497 940.662 480.697 942.062 477.797C943.461 474.897 944.761 471.997 945.861 468.997C948.06 462.997 949.46 456.697 950.16 450.297C949.06 456.597 947.36 462.697 944.861 468.497C942.362 474.297 939.163 479.797 935.763 485.197C934.064 487.897 932.364 490.597 930.865 493.397C929.265 496.197 927.665 498.897 926.066 501.697C922.867 507.197 919.667 512.697 916.368 518.097C909.87 528.997 903.172 539.897 896.373 550.597C889.575 561.397 882.677 572.097 875.478 582.597L875.279 582.897V583.297L872.379 658.297L870.88 695.797C870.78 707.997 870.68 720.097 870.68 732.297C870.68 732.697 870.68 732.997 870.68 733.397C871.679 720.897 872.479 708.397 873.379 695.997L874.879 658.497L877.778 583.897C884.876 573.397 891.774 562.797 898.473 552.197C903.072 544.997 907.47 537.797 911.969 530.497C914.169 526.897 916.368 523.297 918.568 519.597C921.867 513.997 925.066 508.497 928.265 502.997Z" fill="#EDCFC5"/>
<path d="M400.503 321.796C399.803 322.596 398.304 323.896 396.604 325.396C395.604 326.796 394.704 328.296 393.805 329.596C395.004 328.996 396.204 328.396 397.504 327.796L417.999 296.897L397.504 327.796C401.703 325.796 406.002 323.596 407.701 322.496C408.101 322.296 408.401 321.996 408.701 321.696L425.397 295.597C425.697 295.097 425.597 294.497 425.097 294.097C425.397 294.197 425.497 294.397 425.497 294.397L424.397 292.197C424.397 292.197 423.297 291.297 421.998 291.297C420.698 291.297 417.799 292.597 416.199 295.197C415.499 296.397 409.101 306.096 402.203 316.596C403.002 317.696 402.203 319.796 400.503 321.796Z" fill="#E5AA20"/>
<path d="M229.74 351.695C229.24 362.195 229.84 372.895 232.34 383.095C233.539 388.195 235.239 393.195 237.538 397.895C237.838 398.495 238.038 399.095 238.438 399.695L239.438 401.395C240.038 402.495 240.637 403.695 241.437 404.795C242.137 405.895 242.837 406.995 243.637 407.995L246.036 411.095L246.636 411.895L247.336 412.595L248.735 413.995L250.035 415.395C250.435 415.895 251.035 416.295 251.535 416.695C252.534 417.595 253.534 418.395 254.534 419.295L257.733 421.595C258.733 422.395 259.933 423.095 261.032 423.695C262.132 424.395 263.232 425.095 264.431 425.695L267.931 427.395C268.53 427.695 269.13 427.995 269.73 428.195L271.53 428.895L275.229 430.295C276.428 430.695 277.728 430.995 278.928 431.395C281.427 431.995 284.027 432.395 286.626 432.395C291.825 432.595 297.023 431.895 302.122 430.595C303.422 430.195 304.621 429.995 305.921 429.495L309.62 428.195L313.319 426.695C314.519 426.195 315.719 425.595 316.918 425.095C321.717 422.795 326.316 420.295 330.815 417.395C339.713 411.695 348.21 405.195 356.108 398.195C364.406 391.495 372.204 384.295 379.703 376.695L404.396 362.295L413.194 343.995L413.294 334.895C413.294 334.895 424.791 312.995 423.292 309.995C423.292 309.995 418.393 308.995 415.594 311.995C413.094 314.695 411.994 318.895 408.995 321.495C408.695 321.795 408.295 321.995 407.995 322.295C406.296 323.395 401.997 325.495 397.798 327.595C396.498 328.195 395.299 328.795 394.099 329.395C390.6 330.995 387.9 332.295 387.9 332.295C387.9 332.295 392.999 328.495 396.798 325.195C398.498 323.795 399.897 322.495 400.697 321.595C402.497 319.595 403.197 317.495 402.497 316.495C402.197 316.095 401.697 315.895 400.997 315.995C398.398 316.195 388.3 317.495 384.001 320.695C379.703 323.895 370.905 335.595 368.105 338.795C365.206 342.095 359.807 354.095 359.807 354.095C354.409 356.895 349.11 359.695 343.612 362.295C338.013 364.595 332.514 366.995 326.916 369.295L293.624 383.395L292.025 384.095L291.925 382.295L290.125 348.895C289.825 343.295 289.525 337.795 289.325 332.195C289.425 326.595 289.425 320.995 289.625 315.395C290.425 320.895 291.025 326.495 291.725 332.095C292.125 337.695 292.324 343.195 292.624 348.795L294.324 380.495L326.016 367.095C331.615 364.695 337.113 362.395 342.712 359.995C345.311 359.095 348.01 358.095 350.61 357.195C356.208 335.995 359.008 315.595 359.907 308.495C360.907 309.395 362.107 310.295 362.907 310.495C364.506 310.895 379.703 308.495 380.902 307.395C382.102 306.295 381.002 302.995 378.703 300.395C376.403 297.795 369.505 297.695 369.505 297.695L376.603 291.295L382.802 295.095C382.802 295.095 384.801 306.295 386.401 310.195C388 314.095 392.699 312.795 393.099 312.595C393.499 312.395 394.299 304.295 394.299 304.295C394.299 304.295 398.798 308.195 403.497 309.195C408.195 310.095 408.795 305.795 408.795 305.795L395.399 289.895L395.099 283.795C395.099 283.795 384.701 271.595 379.603 267.795C374.504 263.995 372.204 266.395 371.105 266.895C370.005 267.395 368.905 267.095 366.906 266.895C364.906 266.695 361.707 268.695 361.707 268.695L360.007 271.495C353.809 280.295 329.815 312.095 315.419 331.195C314.719 325.295 313.519 319.795 311.82 314.695C309.52 305.095 306.021 296.195 300.622 290.395C288.325 277.095 274.429 275.795 259.733 280.395C246.336 284.595 238.438 301.795 233.739 319.895C231.14 330.595 229.84 341.195 229.74 351.695Z" fill="#1E2B3C"/>
<path d="M812.897 397.105L779.006 382.105L812.897 397.105C814.297 396.905 815.697 396.805 816.996 396.605C815.497 395.905 813.997 395.205 812.397 394.505C810.198 394.205 808.298 393.905 807.199 393.605C804.599 392.905 802.9 391.505 802.9 390.305C791.503 385.205 780.905 380.405 779.606 379.805C776.806 378.505 773.707 378.905 772.607 379.605C771.508 380.305 771.008 381.705 771.008 381.705L771.308 384.105C771.308 384.105 771.408 383.905 771.508 383.605C771.308 384.105 771.508 384.705 772.108 385.005L800.2 398.105C800.6 398.205 801 398.205 801.5 398.205C803.6 398.105 808.298 397.605 812.897 397.105Z" fill="#E5AA20"/>
<path d="M859.188 398.998C865.786 398.198 872.284 397.398 878.883 396.398C885.381 395.098 891.779 393.798 898.278 392.498L937.168 384.798L939.067 384.398L937.968 382.798L918.373 355.198L913.474 348.298L910.974 344.898C910.575 344.298 910.175 343.698 909.775 343.198C909.375 342.598 908.875 342.098 908.475 341.498C904.876 337.098 901.377 332.698 897.678 328.398C900.577 333.298 903.576 338.098 906.576 342.898C906.976 343.498 907.275 344.098 907.675 344.698C908.075 345.298 908.475 345.798 908.875 346.398L911.374 349.798L916.273 356.698L934.769 382.698L897.778 389.998C891.479 391.198 885.281 392.498 878.983 393.698C878.783 393.698 878.583 393.798 878.383 393.798C871.884 395.498 865.486 397.198 859.188 398.998Z" fill="#EDCFC5"/>
<path d="M957.659 431.8C958.259 431.5 958.859 431.2 959.359 430.9L960.958 429.8C965.357 426.9 969.256 423.3 972.156 419C968.556 422.8 964.457 425.8 959.859 428L958.159 428.8C957.559 429 956.959 429.3 956.359 429.5C955.16 430 954.16 430.7 952.96 431C951.761 431.4 950.661 432 949.361 432.3L945.762 433.4C935.965 436 925.667 436.9 915.47 436.7C910.371 436.7 905.272 436.4 900.174 435.9C895.075 435.4 889.976 434.8 884.877 434C874.78 432.4 864.683 430.3 854.885 427.5L854.685 427.4H854.485L847.387 427.7C846.187 427.7 844.987 427.8 843.788 427.9L840.189 428.3C835.49 428.8 830.691 429.2 825.992 429.8C830.791 430 835.49 430.1 840.289 430.2L843.888 430.3C845.087 430.3 846.287 430.3 847.487 430.2L854.485 429.9C864.383 432.7 874.48 434.8 884.677 436.4C889.776 437.2 894.975 437.8 900.074 438.3C905.272 438.8 910.371 439.1 915.57 439.1C925.967 439.2 936.365 438.4 946.562 435.7L950.361 434.5C951.661 434.1 952.86 433.6 954.06 433.1C955.26 432.9 956.459 432.4 957.659 431.8Z" fill="#EDCFC5"/>
<path d="M325.816 367.2L294.124 380.6L292.424 348.9C292.124 343.3 291.824 337.8 291.524 332.2C290.825 326.6 290.225 321.1 289.425 315.5C289.225 321.1 289.225 326.7 289.125 332.3C289.325 337.9 289.725 343.4 289.925 349L291.724 382.4L291.824 384.2L293.424 383.5L326.716 369.4C332.314 367.1 337.813 364.7 343.411 362.4C348.81 359.7 354.209 357 359.607 354.2C356.508 355.2 353.409 356.2 350.41 357.3C347.71 358.2 345.111 359.1 342.512 360.1C336.913 362.6 331.314 364.9 325.816 367.2Z" fill="#EDCFC5"/>
<path d="M235.236 399.102C235.536 399.702 235.736 400.302 236.136 400.902L237.136 402.701C237.836 403.901 238.435 405.101 239.235 406.201C240.035 407.301 240.735 408.502 241.535 409.602L244.034 412.802L244.634 413.602L245.334 414.302L246.733 415.802L248.133 417.302C248.633 417.802 249.133 418.201 249.633 418.701C250.632 419.601 251.632 420.502 252.732 421.402L256.031 423.802C257.131 424.602 258.23 425.301 259.43 426.001C260.63 426.701 261.73 427.402 262.929 428.102L266.628 429.902C267.228 430.202 267.828 430.502 268.428 430.802L270.327 431.501L274.126 433.001C275.426 433.401 276.726 433.801 278.125 434.201C280.825 434.801 283.524 435.202 286.323 435.302C291.822 435.502 297.221 434.702 302.519 433.402C303.819 433.002 305.119 432.702 306.418 432.302L310.217 431.001L314.016 429.501C315.316 429.001 316.516 428.402 317.715 427.802C318.515 427.402 319.315 427.002 320.115 426.602C324.114 424.602 328.013 422.401 331.812 420.001C340.91 414.201 349.408 407.702 357.505 400.602C361.405 396.902 365.204 393.101 368.903 389.201C372.602 385.301 376.101 381.301 379.5 377.201C372.002 384.801 364.104 392.001 355.906 398.701C347.908 405.701 339.51 412.202 330.612 417.902C326.113 420.702 321.515 423.302 316.716 425.602C315.516 426.102 314.316 426.701 313.117 427.201L309.418 428.701L305.718 430.001C304.519 430.401 303.219 430.702 301.919 431.102C296.821 432.402 291.622 433.102 286.423 432.902C283.824 432.802 281.225 432.402 278.725 431.902C277.526 431.502 276.226 431.202 275.026 430.802L271.327 429.402L269.528 428.701C268.928 428.501 268.328 428.102 267.728 427.902L264.229 426.201C263.029 425.601 261.929 424.901 260.83 424.201C259.73 423.501 258.53 422.902 257.531 422.102L254.331 419.802C253.332 419.002 252.332 418.101 251.332 417.201C250.832 416.801 250.332 416.402 249.833 415.902L248.533 414.501L247.133 413.102L246.433 412.402L245.834 411.602L243.434 408.501C242.634 407.401 241.934 406.302 241.235 405.302C240.435 404.202 239.835 403.102 239.235 401.902L238.235 400.201C237.935 399.601 237.636 399.002 237.336 398.402C235.036 393.702 233.337 388.702 232.137 383.602C229.638 373.402 229.038 362.701 229.538 352.201C229.738 341.601 231.037 331.002 233.337 320.602C231.637 325.702 230.337 330.902 229.238 336.102C228.238 341.402 227.438 346.701 226.938 352.001C226.838 354.901 226.738 357.902 226.838 360.902C226.938 368.702 227.738 376.601 229.638 384.201C231.137 389.001 232.837 394.202 235.236 399.102Z" fill="#EDCFC5"/>
</svg>
